<svg width="28" height="28" viewBox="0 0 28 28" fill="none" xmlns="http://www.w3.org/2000/svg">
<rect width="27.9999" height="28" rx="2" fill="#151515"/>
<path d="M18.969 18.9269C19.2235 19.1626 19.5232 19.3441 19.85 19.4605C20.1768 19.5769 20.5238 19.6257 20.87 19.6039C21.4186 19.6178 21.9566 19.4509 22.401 19.1289C22.763 18.8939 23.037 18.5449 23.18 18.1389H25.765C25.4896 19.2966 24.8173 20.3213 23.865 21.0349C22.9508 21.6415 21.8706 21.9491 20.774 21.9149C19.9913 21.9251 19.2146 21.7778 18.49 21.4819C17.8342 21.2087 17.2462 20.7954 16.767 20.2709C16.2898 19.7215 15.9231 19.0852 15.687 18.3969C15.4223 17.6273 15.2927 16.8177 15.304 16.0039C15.299 15.2039 15.433 14.4089 15.7 13.6549C16.0601 12.5946 16.746 11.6753 17.6597 11.028C18.5735 10.3808 19.6683 10.0388 20.788 10.0509C21.615 10.0337 22.4327 10.2275 23.164 10.6139C23.825 10.9759 24.395 11.4839 24.832 12.0989C25.2784 12.7438 25.5984 13.4676 25.775 14.2319C25.969 15.0529 26.038 15.8979 25.98 16.7399H18.281C18.218 17.5299 18.465 18.3139 18.969 18.9269ZM8.947 6.08388C9.59529 6.07213 10.2426 6.13861 10.875 6.28188C11.4077 6.39793 11.9134 6.61446 12.365 6.91988C12.783 7.22288 13.113 7.63088 13.323 8.10188C13.564 8.68088 13.68 9.30488 13.664 9.93188C13.6919 10.6211 13.5159 11.3032 13.158 11.8929C12.7822 12.4495 12.2628 12.8942 11.655 13.1799C12.4802 13.4022 13.199 13.9117 13.682 14.6169C14.146 15.3639 14.379 16.2319 14.352 17.1109C14.3679 17.8116 14.2232 18.5067 13.929 19.1429C13.6574 19.6985 13.2591 20.1825 12.766 20.5559C12.2593 20.9258 11.6888 21.1994 11.083 21.3629C10.4552 21.5368 9.80648 21.624 9.155 21.6219H2V6.08388H8.947ZM8.712 18.9839C9.02 18.9879 9.328 18.9549 9.628 18.8849C9.90234 18.8246 10.1624 18.7119 10.394 18.5529C10.622 18.3949 10.805 18.1819 10.928 17.9339C11.07 17.6169 11.136 17.2709 11.119 16.9249C11.1499 16.609 11.1082 16.2902 10.9969 15.9929C10.8856 15.6957 10.7078 15.4278 10.477 15.2099C9.98742 14.8498 9.38781 14.6713 8.781 14.7049H5.241V18.9839H8.712ZM22.347 13.0169C22.1316 12.8014 21.8725 12.6347 21.5872 12.5279C21.3018 12.4211 20.9969 12.3768 20.693 12.3979C20.2895 12.3822 19.8888 12.4715 19.53 12.6569C19.2457 12.8132 18.995 13.0238 18.792 13.2769C18.6112 13.5135 18.4768 13.7822 18.396 14.0689C18.322 14.3079 18.276 14.5539 18.259 14.8029H23.028C22.9862 14.1532 22.7496 13.5311 22.349 13.0179L22.347 13.0169ZM8.534 12.3689C9.04366 12.3897 9.54533 12.2371 9.957 11.9359C10.356 11.5809 10.564 11.0559 10.517 10.5229C10.53 10.2159 10.4689 9.91031 10.339 9.63188C10.2282 9.41066 10.0564 9.22573 9.844 9.09888C9.62857 8.95922 9.38644 8.86591 9.133 8.82488C8.85803 8.77112 8.57813 8.74665 8.298 8.75188H5.241V12.3829H8.534V12.3689ZM23.62 7.12188H17.644V8.64888H23.62V7.12188Z" fill="white"/>
</svg>
