<svg width="28" height="28" viewBox="0 0 28 28" fill="none" xmlns="http://www.w3.org/2000/svg">
<rect width="28" height="27.9995" rx="2" fill="#151515"/>
<path d="M22.2161 8.41496L22.0841 7.74896C21.9651 7.15096 21.6961 6.58596 21.0831 6.36996C20.8861 6.30096 20.6631 6.27196 20.5131 6.12896C20.3611 5.98596 20.3171 5.76296 20.2821 5.55696C20.2171 5.17896 20.1571 4.80096 20.0901 4.42396C20.0331 4.09896 19.9881 3.73396 19.8401 3.43696C19.6451 3.03696 19.2431 2.80296 18.8441 2.64896C18.6393 2.57239 18.4303 2.50762 18.2181 2.45496C17.2181 2.19196 16.1681 2.09496 15.1411 2.03896C13.9079 1.97115 12.6714 1.99187 11.4411 2.10096C10.5261 2.18396 9.56113 2.28496 8.69113 2.60096C8.37313 2.71696 8.04513 2.85696 7.80313 3.10196C7.50613 3.40396 7.41013 3.87196 7.62613 4.24796C7.78013 4.51496 8.04113 4.70396 8.31813 4.82796C8.67813 4.98996 9.05513 5.11196 9.44113 5.19396C10.5161 5.43196 11.6301 5.52496 12.7281 5.56396C13.9461 5.61396 15.1651 5.57396 16.3781 5.44596C16.6771 5.41296 16.9761 5.37296 17.2741 5.32696C17.6261 5.27296 17.8521 4.81396 17.7481 4.49296C17.6241 4.10996 17.2911 3.96196 16.9141 4.01996C16.4481 4.09396 15.9541 4.12796 15.5321 4.16596C14.3551 4.24596 13.1741 4.24796 11.9961 4.17196C11.6096 4.14638 11.2238 4.1107 10.8391 4.06496C10.7531 4.05496 10.6591 4.03996 10.5811 4.02896C10.3381 3.99296 10.0971 3.94896 9.85713 3.89896C9.74613 3.87196 9.74613 3.71396 9.85713 3.68696H9.86213C10.1391 3.62696 10.4191 3.57896 10.7001 3.53996H10.7021C10.8331 3.53096 10.9651 3.50796 11.0961 3.49196C12.2341 3.37386 13.3787 3.33376 14.5221 3.37196C15.1961 3.39096 15.8691 3.43896 16.5391 3.51596L16.7671 3.54696C17.0341 3.58696 17.3001 3.63496 17.5651 3.69196C17.9571 3.77696 18.4601 3.80496 18.6351 4.23396C18.6901 4.37096 18.7151 4.52196 18.7461 4.66496L19.0651 6.14896C19.0719 6.18078 19.072 6.21365 19.0655 6.24553C19.0591 6.27741 19.0461 6.30761 19.0274 6.33425C19.0087 6.36089 18.9848 6.3834 18.957 6.40038C18.9293 6.41737 18.8983 6.42846 18.8661 6.43296H18.8631C18.8261 6.43896 18.7881 6.44296 18.7511 6.44796C17.1782 6.64865 15.5938 6.74719 14.0081 6.74296C12.4369 6.74134 10.8674 6.6398 9.30913 6.43896C9.16913 6.42196 9.01613 6.39696 8.89213 6.37896C8.56613 6.33096 8.24313 6.27096 7.91913 6.21796C7.52613 6.15296 7.15113 6.18596 6.79613 6.37896C6.50613 6.53896 6.26913 6.78296 6.12113 7.07996C5.96713 7.39596 5.92213 7.73996 5.85413 8.07996C5.78513 8.41996 5.67813 8.78696 5.71913 9.13596C5.80613 9.88896 6.33213 10.501 7.08913 10.638C10.8326 11.306 14.6526 11.4326 18.4321 11.014C18.5039 11.0058 18.5767 11.0138 18.6449 11.0375C18.7132 11.0612 18.7753 11.0999 18.8267 11.1507C18.878 11.2016 18.9173 11.2633 18.9416 11.3314C18.9659 11.3994 18.9746 11.4721 18.9671 11.544L18.8961 12.241L17.8781 22.148C17.8371 22.558 17.8311 22.98 17.7531 23.385C17.6311 24.022 17.2001 24.413 16.5711 24.556C15.9941 24.687 15.4061 24.756 14.8151 24.761C14.1591 24.765 13.5051 24.736 12.8491 24.739C12.1501 24.743 11.2931 24.679 10.7541 24.159C10.2791 23.701 10.2141 22.985 10.1491 22.366L9.41813 15.353L9.09613 12.259C9.05913 11.908 8.81013 11.564 8.41813 11.581C8.08213 11.596 7.70013 11.881 7.74013 12.26L7.96813 14.445L8.91713 23.557C9.06413 24.901 10.0911 25.625 11.3631 25.829C12.1051 25.949 12.8661 25.973 13.6201 25.985C14.5861 26.001 15.5621 26.038 16.5121 25.863C17.9201 25.605 18.9771 24.665 19.1281 23.206C19.4681 19.874 19.8111 16.543 20.1521 13.211L20.3671 11.124C20.3777 11.0205 20.4214 10.9231 20.4916 10.8464C20.5619 10.7697 20.655 10.7176 20.7571 10.698C21.1591 10.62 21.5441 10.486 21.8311 10.18C22.2861 9.69196 22.3771 9.05696 22.2161 8.41496ZM20.7381 9.18696C20.5931 9.32396 20.3751 9.38796 20.1601 9.41996C17.7441 9.77896 15.2941 9.95996 12.8521 9.87996C11.1041 9.81996 9.37513 9.62596 7.64513 9.38196C7.47513 9.35796 7.29213 9.32696 7.17513 9.20196C6.95513 8.96596 7.06413 8.49196 7.12113 8.20696C7.17313 7.94696 7.27313 7.59796 7.58413 7.56096C8.06813 7.50396 8.63013 7.70896 9.11013 7.78096C9.68713 7.86896 10.2661 7.93996 10.8471 7.99296C13.3271 8.21896 15.8491 8.18296 18.3191 7.85296C18.7691 7.79296 19.2181 7.72296 19.6641 7.64296C20.0631 7.57096 20.5041 7.43696 20.7441 7.84896C20.9101 8.12996 20.9321 8.50596 20.9061 8.82296C20.8982 8.9614 20.8378 9.0916 20.7371 9.18696H20.7381ZM14.5791 13.087C13.7171 13.457 12.7391 13.875 11.4701 13.875C10.9397 13.8737 10.412 13.8007 9.90113 13.658L10.7781 22.662C10.8431 23.442 11.4951 24.042 12.2781 24.042C12.2781 24.042 13.5211 24.107 13.9361 24.107C14.3831 24.107 15.7221 24.042 15.7221 24.042C16.5051 24.042 17.1561 23.442 17.2211 22.662L18.1611 12.712C17.737 12.5586 17.2901 12.4781 16.8391 12.474C16.0131 12.474 15.3481 12.758 14.5791 13.087Z" fill="white"/>
</svg>
