<svg width="28" height="28" viewBox="0 0 28 28" fill="none" xmlns="http://www.w3.org/2000/svg">
<rect width="28" height="28" rx="2" fill="#0E0C0C"/>
<path d="M14 26C7.385 26 2 20.615 2 14C2 7.385 7.385 2 14 2C20.615 2 26 7.385 26 14C26 20.615 20.615 26 14 26ZM24.12 15.642C23.77 15.532 20.95 14.689 17.736 15.204C19.076 18.888 19.623 21.888 19.728 22.512C22.028 20.957 23.664 18.492 24.123 15.642H24.12ZM18.005 23.45C17.852 22.55 17.255 19.418 15.815 15.68L15.749 15.7C9.959 17.715 7.889 21.725 7.709 22.1C9.439 23.458 11.629 24.266 13.999 24.266C15.419 24.266 16.769 23.976 17.999 23.452L18.005 23.45ZM6.385 20.87C6.617 20.47 9.43 15.815 14.717 14.105C14.852 14.06 14.987 14.021 15.122 13.985C14.862 13.4 14.582 12.818 14.29 12.245C9.17 13.775 4.206 13.71 3.756 13.7L3.752 14.012C3.752 16.645 4.75 19.049 6.386 20.867L6.385 20.87ZM3.965 11.915C4.425 11.923 8.648 11.941 13.442 10.667C11.744 7.649 9.912 5.109 9.642 4.739C6.774 6.089 4.632 8.729 3.966 11.909L3.965 11.915ZM11.6 4.052C11.882 4.432 13.745 6.966 15.422 10.052C19.067 8.687 20.612 6.612 20.795 6.35C18.985 4.74 16.605 3.764 14 3.764C13.175 3.764 12.37 3.864 11.6 4.049V4.052ZM21.935 7.535C21.717 7.825 20 10.028 16.211 11.575C16.451 12.065 16.681 12.56 16.891 13.061C16.971 13.241 17.041 13.421 17.111 13.591C20.521 13.161 23.911 13.851 24.251 13.921C24.231 11.501 23.371 9.281 21.941 7.541L21.935 7.535Z" fill="#AE4CFB"/>
</svg>
