<svg width="85" height="32" viewBox="0 0 85 32" fill="none" xmlns="http://www.w3.org/2000/svg">
<rect width="85" height="32" rx="2" fill="#151515"/>
<path d="M17.7363 9.85251L21.741 5.73586L24.0658 8.11666L19.8652 12.1213H25.7737V15.4261H19.8372L24.0658 19.5337L21.741 21.8675L16.0005 16.099L10.26 21.8675L7.93518 19.5427L12.1638 15.4351H6.22632V12.1213H12.1348L7.93417 8.11666L10.259 5.73586L14.2636 9.85251V4H17.7363V9.85251ZM14.2636 20.1586H17.7363V28H14.2636V20.1586Z" fill="white"/>
<path d="M32.793 21.5V10.97H34.717V20.174H37.265V21.5H32.793ZM38.4792 21.5V10.97H40.3772V21.5H38.4792ZM42.1698 21.5V10.97H43.5088L46.0698 16.976V10.97H47.6558V21.5H46.3818L43.8078 15.208V21.5H42.1698ZM49.4162 21.5V10.97H51.3402V15.598L53.4202 10.97H55.2532L53.2382 15.676L55.4612 21.5H53.5502L51.7822 16.703L51.3402 17.509V21.5H49.4162ZM57.5507 21.5V12.387H55.8737V10.97H61.1257V12.387H59.4747V21.5H57.5507ZM62.2461 21.5V10.97H64.7681C65.4788 10.97 66.0768 11.0567 66.5621 11.23C67.0561 11.3947 67.4288 11.6807 67.6801 12.088C67.9401 12.4953 68.0701 13.05 68.0701 13.752C68.0701 14.1767 68.0311 14.558 67.9531 14.896C67.8751 15.234 67.7408 15.5243 67.5501 15.767C67.3681 16.001 67.1125 16.183 66.7831 16.313L68.2521 21.5H66.3281L65.0541 16.677H64.1701V21.5H62.2461ZM64.1701 15.468H64.7681C65.1408 15.468 65.4355 15.416 65.6521 15.312C65.8775 15.1993 66.0378 15.026 66.1331 14.792C66.2285 14.5493 66.2761 14.2417 66.2761 13.869C66.2761 13.3403 66.1765 12.946 65.9771 12.686C65.7865 12.4173 65.4181 12.283 64.8721 12.283H64.1701V15.468ZM69.6957 21.5V10.97H74.1157V12.322H71.6197V15.351H73.5827V16.69H71.6197V20.174H74.1417V21.5H69.6957ZM75.4188 21.5V10.97H79.8388V12.322H77.3428V15.351H79.3058V16.69H77.3428V20.174H79.8648V21.5H75.4188Z" fill="white"/>
</svg>
