<svg width="28" height="28" viewBox="0 0 28 28" fill="none" xmlns="http://www.w3.org/2000/svg">
<rect width="28" height="28" rx="2" fill="#151515"/>
<path d="M18.619 20.147H22.173L22.174 13.861C22.174 10.776 21.508 8.406 17.907 8.406C16.174 8.406 15.014 9.356 14.537 10.256H14.491V8.695H11.077V20.147H14.631V14.48C14.631 12.986 14.914 11.541 16.767 11.541C18.592 11.541 18.619 13.25 18.619 14.578V20.147Z" fill="white"/>
<path d="M5 5.063C5 6.202 5.919 7.128 7.063 7.128C8.202 7.128 9.127 6.202 9.127 5.063C9.127 3.925 8.203 3 7.063 3C5.92 3 5 3.925 5 5.063Z" fill="white"/>
<path d="M5.281 20.147H8.845V8.695H5.281V20.147Z" fill="white"/>
</svg>
