<svg width="63" height="32" viewBox="0 0 63 32" fill="none" xmlns="http://www.w3.org/2000/svg">
<rect width="63" height="32" rx="2" fill="#151515"/>
<path d="M5.5 4H26.5L24.59 25.563L15.977 28L7.412 25.562L5.5 4ZM22.59 8.413L9.41 8.41L9.623 11.032L19.748 11.034L19.493 13.75H12.853L13.093 16.323H19.275L18.909 19.846L15.999 20.65L13.043 19.84L12.855 17.73H10.245L10.535 21.585L16 23.288L21.373 21.758L22.59 8.413Z" fill="white"/>
<path d="M35.627 21.643C34.8557 21.643 34.249 21.4913 33.807 21.188C33.3737 20.8847 33.0703 20.473 32.897 19.953C32.7237 19.4243 32.637 18.8177 32.637 18.133V14.376C32.637 13.6567 32.7237 13.0327 32.897 12.504C33.0703 11.9753 33.3737 11.568 33.807 11.282C34.249 10.996 34.8557 10.853 35.627 10.853C36.355 10.853 36.9227 10.9787 37.33 11.23C37.746 11.4727 38.0407 11.8237 38.214 12.283C38.3873 12.7423 38.474 13.2753 38.474 13.882V14.766H36.628V13.856C36.628 13.5613 36.6107 13.2927 36.576 13.05C36.55 12.8073 36.4677 12.6167 36.329 12.478C36.199 12.3307 35.9693 12.257 35.64 12.257C35.3107 12.257 35.068 12.335 34.912 12.491C34.7647 12.6383 34.6693 12.842 34.626 13.102C34.5827 13.3533 34.561 13.6393 34.561 13.96V18.536C34.561 18.9173 34.5913 19.2337 34.652 19.485C34.7127 19.7277 34.821 19.914 34.977 20.044C35.1417 20.1653 35.3627 20.226 35.64 20.226C35.9607 20.226 36.186 20.1523 36.316 20.005C36.4547 19.849 36.5413 19.6453 36.576 19.394C36.6107 19.1427 36.628 18.861 36.628 18.549V17.6H38.474V18.445C38.474 19.069 38.3917 19.6237 38.227 20.109C38.0623 20.5857 37.772 20.9627 37.356 21.24C36.9487 21.5087 36.3723 21.643 35.627 21.643ZM42.628 21.643C41.9953 21.643 41.4667 21.5217 41.042 21.279C40.6173 21.0277 40.2967 20.6637 40.08 20.187C39.8633 19.7103 39.742 19.1253 39.716 18.432L41.367 18.107C41.3843 18.5143 41.432 18.874 41.51 19.186C41.5967 19.498 41.7223 19.7407 41.887 19.914C42.0603 20.0787 42.2857 20.161 42.563 20.161C42.875 20.161 43.096 20.07 43.226 19.888C43.356 19.6973 43.421 19.459 43.421 19.173C43.421 18.7137 43.317 18.3367 43.109 18.042C42.901 17.7473 42.6237 17.4527 42.277 17.158L40.951 15.988C40.5783 15.6673 40.2793 15.312 40.054 14.922C39.8373 14.5233 39.729 14.0337 39.729 13.453C39.729 12.621 39.9717 11.9797 40.457 11.529C40.9423 11.0783 41.6053 10.853 42.446 10.853C42.94 10.853 43.3517 10.931 43.681 11.087C44.0103 11.2343 44.2703 11.4423 44.461 11.711C44.6603 11.9797 44.8077 12.2873 44.903 12.634C44.9983 12.972 45.059 13.3317 45.085 13.713L43.447 13.999C43.4297 13.6697 43.3907 13.375 43.33 13.115C43.278 12.855 43.1783 12.6513 43.031 12.504C42.8923 12.3567 42.6843 12.283 42.407 12.283C42.121 12.283 41.9 12.3783 41.744 12.569C41.5967 12.751 41.523 12.9807 41.523 13.258C41.523 13.6133 41.5967 13.908 41.744 14.142C41.8913 14.3673 42.1037 14.6013 42.381 14.844L43.694 16.001C44.1273 16.365 44.4957 16.794 44.799 17.288C45.111 17.7733 45.267 18.3627 45.267 19.056C45.267 19.5587 45.1543 20.005 44.929 20.395C44.7123 20.785 44.4047 21.0927 44.006 21.318C43.616 21.5347 43.1567 21.643 42.628 21.643ZM49.1128 21.643C48.4801 21.643 47.9514 21.5217 47.5268 21.279C47.1021 21.0277 46.7814 20.6637 46.5648 20.187C46.3481 19.7103 46.2268 19.1253 46.2008 18.432L47.8518 18.107C47.8691 18.5143 47.9168 18.874 47.9948 19.186C48.0814 19.498 48.2071 19.7407 48.3718 19.914C48.5451 20.0787 48.7704 20.161 49.0478 20.161C49.3598 20.161 49.5808 20.07 49.7108 19.888C49.8408 19.6973 49.9058 19.459 49.9058 19.173C49.9058 18.7137 49.8018 18.3367 49.5938 18.042C49.3858 17.7473 49.1084 17.4527 48.7618 17.158L47.4358 15.988C47.0631 15.6673 46.7641 15.312 46.5388 14.922C46.3221 14.5233 46.2138 14.0337 46.2138 13.453C46.2138 12.621 46.4564 11.9797 46.9418 11.529C47.4271 11.0783 48.0901 10.853 48.9308 10.853C49.4248 10.853 49.8364 10.931 50.1658 11.087C50.4951 11.2343 50.7551 11.4423 50.9458 11.711C51.1451 11.9797 51.2924 12.2873 51.3878 12.634C51.4831 12.972 51.5438 13.3317 51.5698 13.713L49.9318 13.999C49.9144 13.6697 49.8754 13.375 49.8148 13.115C49.7628 12.855 49.6631 12.6513 49.5158 12.504C49.3771 12.3567 49.1691 12.283 48.8918 12.283C48.6058 12.283 48.3848 12.3783 48.2288 12.569C48.0814 12.751 48.0078 12.9807 48.0078 13.258C48.0078 13.6133 48.0814 13.908 48.2288 14.142C48.3761 14.3673 48.5884 14.6013 48.8658 14.844L50.1788 16.001C50.6121 16.365 50.9804 16.794 51.2838 17.288C51.5958 17.7733 51.7518 18.3627 51.7518 19.056C51.7518 19.5587 51.6391 20.005 51.4138 20.395C51.1971 20.785 50.8894 21.0927 50.4908 21.318C50.1008 21.5347 49.6414 21.643 49.1128 21.643ZM55.5041 21.656C54.8454 21.656 54.3124 21.5347 53.9051 21.292C53.5064 21.0407 53.2161 20.6897 53.0341 20.239C52.8521 19.7797 52.7611 19.2467 52.7611 18.64V18.276H54.5421C54.5421 18.302 54.5421 18.3453 54.5421 18.406C54.5421 18.4667 54.5421 18.5273 54.5421 18.588C54.5508 18.9173 54.5811 19.199 54.6331 19.433C54.6851 19.667 54.7804 19.8447 54.9191 19.966C55.0664 20.0873 55.2658 20.148 55.5171 20.148C55.7858 20.148 55.9851 20.083 56.1151 19.953C56.2538 19.823 56.3448 19.6323 56.3881 19.381C56.4401 19.1297 56.4661 18.8307 56.4661 18.484C56.4661 17.9467 56.3794 17.5263 56.2061 17.223C56.0414 16.911 55.7164 16.742 55.2311 16.716C55.2138 16.716 55.1704 16.716 55.1011 16.716C55.0404 16.716 54.9841 16.716 54.9321 16.716V15.273C54.9754 15.273 55.0188 15.273 55.0621 15.273C55.1141 15.273 55.1618 15.273 55.2051 15.273C55.6818 15.2643 56.0111 15.1387 56.1931 14.896C56.3751 14.6447 56.4661 14.246 56.4661 13.7C56.4661 13.258 56.3968 12.9113 56.2581 12.66C56.1281 12.4087 55.8724 12.283 55.4911 12.283C55.1184 12.283 54.8671 12.4217 54.7371 12.699C54.6158 12.9763 54.5508 13.336 54.5421 13.778C54.5421 13.8387 54.5421 13.9037 54.5421 13.973C54.5421 14.0337 54.5421 14.0987 54.5421 14.168H52.7611V13.661C52.7611 13.063 52.8651 12.556 53.0731 12.14C53.2898 11.7153 53.6018 11.3947 54.0091 11.178C54.4164 10.9527 54.9104 10.84 55.4911 10.84C56.0891 10.84 56.5918 10.9483 56.9991 11.165C57.4064 11.3817 57.7141 11.698 57.9221 12.114C58.1388 12.5213 58.2471 13.024 58.2471 13.622C58.2471 14.246 58.1171 14.7573 57.8571 15.156C57.5971 15.5547 57.2634 15.8147 56.8561 15.936C57.1334 16.0227 57.3761 16.1743 57.5841 16.391C57.7921 16.599 57.9524 16.8763 58.0651 17.223C58.1864 17.561 58.2471 17.9727 58.2471 18.458C58.2471 19.0907 58.1561 19.6497 57.9741 20.135C57.8008 20.6117 57.5104 20.9843 57.1031 21.253C56.7044 21.5217 56.1714 21.656 55.5041 21.656Z" fill="white"/>
</svg>
