<svg width="96" height="32" viewBox="0 0 96 32" fill="none" xmlns="http://www.w3.org/2000/svg">
<rect width="96" height="32" rx="2" fill="#151515"/>
<path d="M16 4C9.372 4 4 9.372 4 16C4 22.626 9.372 28 16 28C22.628 28 28 22.628 28 16C28 9.374 22.628 4 16 4ZM13 21H11V11H13V21ZM21 21H15V19H21V21ZM21 17H15V15H21V17ZM21 13H15V11H21V13Z" fill="white"/>
<path d="M32.793 21.5V10.97H37.213V12.322H34.717V15.351H36.68V16.69H34.717V20.174H37.239V21.5H32.793ZM38.516 21.5V10.97H40.44V20.174H42.988V21.5H38.516ZM44.1502 21.5V10.97H48.5702V12.322H46.0742V15.351H48.0372V16.69H46.0742V20.174H48.5962V21.5H44.1502ZM49.8473 21.5L50.0293 10.97H52.0183L53.5133 18.263L55.0733 10.97H56.9973L57.1923 21.5H55.7623L55.6063 14.181L54.1113 21.5H52.9543L51.4333 14.155L51.2903 21.5H49.8473ZM58.9098 21.5V10.97H63.3298V12.322H60.8338V15.351H62.7968V16.69H60.8338V20.174H63.3558V21.5H58.9098ZM64.6328 21.5V10.97H65.9718L68.5328 16.976V10.97H70.1188V21.5H68.8448L66.2708 15.208V21.5H64.6328ZM72.9323 21.5V12.387H71.2553V10.97H76.5073V12.387H74.8563V21.5H72.9323ZM80.437 21.643C79.6917 21.643 79.098 21.5043 78.656 21.227C78.214 20.9497 77.8977 20.551 77.707 20.031C77.5163 19.511 77.421 18.8957 77.421 18.185V14.246C77.421 13.5353 77.5163 12.9287 77.707 12.426C77.8977 11.9147 78.214 11.5247 78.656 11.256C79.098 10.9873 79.6917 10.853 80.437 10.853C81.1997 10.853 81.7977 10.9873 82.231 11.256C82.673 11.5247 82.9893 11.9147 83.18 12.426C83.3793 12.9287 83.479 13.5353 83.479 14.246V18.198C83.479 18.9 83.3793 19.511 83.18 20.031C82.9893 20.5423 82.673 20.941 82.231 21.227C81.7977 21.5043 81.1997 21.643 80.437 21.643ZM80.437 20.226C80.7577 20.226 80.9917 20.1567 81.139 20.018C81.295 19.8793 81.399 19.6887 81.451 19.446C81.503 19.2033 81.529 18.939 81.529 18.653V13.804C81.529 13.5093 81.503 13.245 81.451 13.011C81.399 12.777 81.295 12.595 81.139 12.465C80.9917 12.3263 80.7577 12.257 80.437 12.257C80.1337 12.257 79.904 12.3263 79.748 12.465C79.592 12.595 79.488 12.777 79.436 13.011C79.384 13.245 79.358 13.5093 79.358 13.804V18.653C79.358 18.939 79.3797 19.2033 79.423 19.446C79.475 19.6887 79.579 19.8793 79.735 20.018C79.891 20.1567 80.125 20.226 80.437 20.226ZM85.0647 21.5V10.97H87.5867C88.2973 10.97 88.8953 11.0567 89.3807 11.23C89.8747 11.3947 90.2473 11.6807 90.4987 12.088C90.7587 12.4953 90.8887 13.05 90.8887 13.752C90.8887 14.1767 90.8497 14.558 90.7717 14.896C90.6937 15.234 90.5593 15.5243 90.3687 15.767C90.1867 16.001 89.931 16.183 89.6017 16.313L91.0707 21.5H89.1467L87.8727 16.677H86.9887V21.5H85.0647ZM86.9887 15.468H87.5867C87.9593 15.468 88.254 15.416 88.4707 15.312C88.696 15.1993 88.8563 15.026 88.9517 14.792C89.047 14.5493 89.0947 14.2417 89.0947 13.869C89.0947 13.3403 88.995 12.946 88.7957 12.686C88.605 12.4173 88.2367 12.283 87.6907 12.283H86.9887V15.468Z" fill="white"/>
</svg>
