<svg width="71" height="32" viewBox="0 0 71 32" fill="none" xmlns="http://www.w3.org/2000/svg">
<rect width="71" height="32" rx="2" fill="#151515"/>
<path d="M5.5 4H26.5L24.59 25.563L15.977 28L7.413 25.562L5.5 4ZM12.531 13.75L12.299 11.032L22.358 11.035L22.588 8.413L9.412 8.41L10.11 16.42H19.236L18.91 19.846L16 20.65L13.045 19.84L12.857 17.73H10.248L10.578 21.901L16 23.351L21.379 21.908L22.123 13.751H12.531V13.75Z" fill="white"/>
<path d="M32.819 21.5V10.97H34.73V15.377H36.875V10.97H38.799V21.5H36.875V16.742H34.73V21.5H32.819ZM41.6257 21.5V12.387H39.9487V10.97H45.2007V12.387H43.5497V21.5H41.6257ZM46.2697 21.5L46.4517 10.97H48.4407L49.9357 18.263L51.4957 10.97H53.4197L53.6147 21.5H52.1847L52.0287 14.181L50.5337 21.5H49.3767L47.8557 14.155L47.7127 21.5H46.2697ZM55.3323 21.5V10.97H57.2563V20.174H59.8043V21.5H55.3323ZM63.4104 21.656C62.7084 21.656 62.1624 21.526 61.7724 21.266C61.3911 21.006 61.1268 20.6377 60.9794 20.161C60.8321 19.6843 60.7584 19.1253 60.7584 18.484H62.5134C62.5134 18.8393 62.5351 19.1557 62.5784 19.433C62.6304 19.7017 62.7258 19.914 62.8644 20.07C63.0118 20.2173 63.2241 20.2867 63.5014 20.278C63.8048 20.278 64.0171 20.1827 64.1384 19.992C64.2684 19.7927 64.3508 19.5197 64.3854 19.173C64.4201 18.8177 64.4374 18.406 64.4374 17.938C64.4374 17.5307 64.4114 17.1753 64.3594 16.872C64.3161 16.5687 64.2251 16.3347 64.0864 16.17C63.9478 15.9967 63.7311 15.91 63.4364 15.91C63.1851 15.91 62.9771 15.9967 62.8124 16.17C62.6478 16.3347 62.5264 16.5557 62.4484 16.833H60.9014L61.0054 10.97H65.7374V12.582H62.5134L62.4094 15.117C62.5394 14.961 62.7258 14.8353 62.9684 14.74C63.2198 14.6447 63.4971 14.5883 63.8004 14.571C64.3551 14.545 64.8058 14.662 65.1524 14.922C65.4991 15.182 65.7548 15.559 65.9194 16.053C66.0841 16.547 66.1664 17.1363 66.1664 17.821C66.1664 18.3757 66.1274 18.887 66.0494 19.355C65.9801 19.823 65.8458 20.2303 65.6464 20.577C65.4471 20.915 65.1654 21.1793 64.8014 21.37C64.4461 21.5607 63.9824 21.656 63.4104 21.656Z" fill="white"/>
</svg>
