<svg width="98" height="32" viewBox="0 0 98 32" fill="none" xmlns="http://www.w3.org/2000/svg">
<rect width="98" height="32" rx="2" fill="#151515"/>
<g clip-path="url(#clip0_30_24)">
<path d="M4 4H28V28H4V4ZM26.034 22.276C25.859 21.181 25.146 20.261 23.031 19.403C22.295 19.058 21.477 18.818 21.234 18.263C21.143 17.933 21.129 17.753 21.188 17.558C21.338 16.912 22.103 16.718 22.703 16.898C23.093 17.018 23.453 17.318 23.679 17.798C24.713 17.122 24.713 17.122 25.434 16.673C25.164 16.253 25.03 16.072 24.848 15.893C24.218 15.188 23.379 14.828 22.014 14.859L21.309 14.948C20.633 15.113 19.989 15.473 19.599 15.953C18.459 17.244 18.788 19.494 20.168 20.424C21.533 21.444 23.529 21.668 23.784 22.629C24.024 23.799 22.914 24.174 21.818 24.039C21.007 23.859 20.558 23.453 20.063 22.703L18.233 23.754C18.443 24.234 18.683 24.443 19.043 24.863C20.783 26.619 25.133 26.529 25.914 23.859C25.943 23.769 26.154 23.154 25.988 22.209L26.034 22.276ZM17.051 15.031H14.803C14.803 16.969 14.794 18.895 14.794 20.836C14.794 22.068 14.857 23.199 14.656 23.547C14.326 24.236 13.476 24.148 13.09 24.027C12.694 23.831 12.493 23.561 12.26 23.172C12.197 23.067 12.15 22.976 12.133 22.976L10.308 24.101C10.613 24.731 11.058 25.273 11.632 25.618C12.487 26.128 13.636 26.293 14.839 26.023C15.622 25.797 16.297 25.332 16.65 24.612C17.16 23.682 17.052 22.542 17.047 21.266C17.059 19.212 17.047 17.157 17.047 15.087L17.051 15.031Z" fill="white"/>
</g>
<path d="M32.13 21.76V20.408C32.4073 20.408 32.637 20.3907 32.819 20.356C33.001 20.3213 33.1397 20.2607 33.235 20.174C33.339 20.0787 33.4127 19.9443 33.456 19.771C33.4993 19.589 33.521 19.3593 33.521 19.082V10.97H35.432V19.16C35.432 19.7493 35.3627 20.239 35.224 20.629C35.0853 21.0103 34.8427 21.2963 34.496 21.487C34.158 21.669 33.677 21.76 33.053 21.76H32.13ZM36.6627 21.5L38.7687 10.97H40.8227L42.9287 21.5H41.1477L40.7317 19.069H38.8987L38.4697 21.5H36.6627ZM39.0937 17.847H40.5237L39.8087 13.427L39.0937 17.847ZM45.3687 21.5L43.2497 10.97H44.9527L46.3437 18.419L47.6437 10.97H49.3857L47.2667 21.5H45.3687ZM49.6957 21.5L51.8017 10.97H53.8557L55.9617 21.5H54.1807L53.7647 19.069H51.9317L51.5027 21.5H49.6957ZM52.1267 17.847H53.5567L52.8417 13.427L52.1267 17.847ZM59.7845 21.643C59.1518 21.643 58.6231 21.5217 58.1985 21.279C57.7738 21.0277 57.4531 20.6637 57.2365 20.187C57.0198 19.7103 56.8985 19.1253 56.8725 18.432L58.5235 18.107C58.5408 18.5143 58.5885 18.874 58.6665 19.186C58.7531 19.498 58.8788 19.7407 59.0435 19.914C59.2168 20.0787 59.4421 20.161 59.7195 20.161C60.0315 20.161 60.2525 20.07 60.3825 19.888C60.5125 19.6973 60.5775 19.459 60.5775 19.173C60.5775 18.7137 60.4735 18.3367 60.2655 18.042C60.0575 17.7473 59.7801 17.4527 59.4335 17.158L58.1075 15.988C57.7348 15.6673 57.4358 15.312 57.2105 14.922C56.9938 14.5233 56.8855 14.0337 56.8855 13.453C56.8855 12.621 57.1281 11.9797 57.6135 11.529C58.0988 11.0783 58.7618 10.853 59.6025 10.853C60.0965 10.853 60.5081 10.931 60.8375 11.087C61.1668 11.2343 61.4268 11.4423 61.6175 11.711C61.8168 11.9797 61.9641 12.2873 62.0595 12.634C62.1548 12.972 62.2155 13.3317 62.2415 13.713L60.6035 13.999C60.5861 13.6697 60.5471 13.375 60.4865 13.115C60.4345 12.855 60.3348 12.6513 60.1875 12.504C60.0488 12.3567 59.8408 12.283 59.5635 12.283C59.2775 12.283 59.0565 12.3783 58.9005 12.569C58.7531 12.751 58.6795 12.9807 58.6795 13.258C58.6795 13.6133 58.7531 13.908 58.9005 14.142C59.0478 14.3673 59.2601 14.6013 59.5375 14.844L60.8505 16.001C61.2838 16.365 61.6521 16.794 61.9555 17.288C62.2675 17.7733 62.4235 18.3627 62.4235 19.056C62.4235 19.5587 62.3108 20.005 62.0855 20.395C61.8688 20.785 61.5611 21.0927 61.1625 21.318C60.7725 21.5347 60.3131 21.643 59.7845 21.643ZM66.5528 21.643C65.7814 21.643 65.1748 21.4913 64.7328 21.188C64.2994 20.8847 63.9961 20.473 63.8228 19.953C63.6494 19.4243 63.5628 18.8177 63.5628 18.133V14.376C63.5628 13.6567 63.6494 13.0327 63.8228 12.504C63.9961 11.9753 64.2994 11.568 64.7328 11.282C65.1748 10.996 65.7814 10.853 66.5528 10.853C67.2808 10.853 67.8484 10.9787 68.2558 11.23C68.6718 11.4727 68.9664 11.8237 69.1398 12.283C69.3131 12.7423 69.3998 13.2753 69.3998 13.882V14.766H67.5538V13.856C67.5538 13.5613 67.5364 13.2927 67.5018 13.05C67.4758 12.8073 67.3934 12.6167 67.2548 12.478C67.1248 12.3307 66.8951 12.257 66.5658 12.257C66.2364 12.257 65.9938 12.335 65.8378 12.491C65.6904 12.6383 65.5951 12.842 65.5518 13.102C65.5084 13.3533 65.4868 13.6393 65.4868 13.96V18.536C65.4868 18.9173 65.5171 19.2337 65.5778 19.485C65.6384 19.7277 65.7468 19.914 65.9028 20.044C66.0674 20.1653 66.2884 20.226 66.5658 20.226C66.8864 20.226 67.1118 20.1523 67.2418 20.005C67.3804 19.849 67.4671 19.6453 67.5018 19.394C67.5364 19.1427 67.5538 18.861 67.5538 18.549V17.6H69.3998V18.445C69.3998 19.069 69.3174 19.6237 69.1528 20.109C68.9881 20.5857 68.6978 20.9627 68.2818 21.24C67.8744 21.5087 67.2981 21.643 66.5528 21.643ZM70.9018 21.5V10.97H73.4238C74.1345 10.97 74.7325 11.0567 75.2178 11.23C75.7118 11.3947 76.0845 11.6807 76.3358 12.088C76.5958 12.4953 76.7258 13.05 76.7258 13.752C76.7258 14.1767 76.6868 14.558 76.6088 14.896C76.5308 15.234 76.3965 15.5243 76.2058 15.767C76.0238 16.001 75.7681 16.183 75.4388 16.313L76.9078 21.5H74.9838L73.7098 16.677H72.8258V21.5H70.9018ZM72.8258 15.468H73.4238C73.7965 15.468 74.0911 15.416 74.3078 15.312C74.5331 15.1993 74.6935 15.026 74.7888 14.792C74.8841 14.5493 74.9318 14.2417 74.9318 13.869C74.9318 13.3403 74.8321 12.946 74.6328 12.686C74.4421 12.4173 74.0738 12.283 73.5278 12.283H72.8258V15.468ZM78.4034 21.5V10.97H80.3014V21.5H78.4034ZM82.094 21.5V10.97H85.188C85.8206 10.97 86.332 11.087 86.722 11.321C87.1206 11.555 87.411 11.8973 87.593 12.348C87.7836 12.79 87.879 13.3273 87.879 13.96C87.879 14.6447 87.762 15.1993 87.528 15.624C87.294 16.04 86.9646 16.3433 86.54 16.534C86.124 16.7247 85.63 16.82 85.058 16.82H84.018V21.5H82.094ZM84.018 15.468H84.746C85.0926 15.468 85.3613 15.4203 85.552 15.325C85.7513 15.221 85.8856 15.0607 85.955 14.844C86.033 14.6187 86.072 14.3197 86.072 13.947C86.072 13.5657 86.0416 13.258 85.981 13.024C85.929 12.7813 85.8076 12.6037 85.617 12.491C85.435 12.3783 85.1446 12.322 84.746 12.322H84.018V15.468ZM90.1649 21.5V12.387H88.4879V10.97H93.7399V12.387H92.0889V21.5H90.1649Z" fill="white"/>
<defs>
<clipPath id="clip0_30_24">
<rect width="24" height="24" fill="white" transform="translate(4 4)"/>
</clipPath>
</defs>
</svg>
