<svg width="119" height="32" viewBox="0 0 119 32" fill="none" xmlns="http://www.w3.org/2000/svg">
<rect width="119" height="32" rx="2" fill="#151515"/>
<g clip-path="url(#clip0_30_36)">
<path d="M6.22699 8.85699C5.93373 8.85712 5.64338 8.91515 5.37259 9.02774C5.10181 9.14032 4.85591 9.30526 4.64901 9.51309C4.44211 9.72092 4.27827 9.96756 4.1669 10.2388C4.05552 10.5101 3.9988 10.8007 3.99999 11.094V18.551C3.99999 19.787 5.00099 20.788 6.23699 20.788H15.49L19.719 23.143L18.757 20.788H25.763C26.999 20.788 28 19.788 28 18.551V11.094C28 9.85799 27 8.85699 25.763 8.85699H6.22699ZM14.307 10.168C14.501 10.17 14.679 10.239 14.842 10.368C14.9297 10.4342 15.0023 10.5184 15.0547 10.615C15.1072 10.7116 15.1383 10.8183 15.146 10.928C15.1591 11.0908 15.1251 11.254 15.048 11.398C14.666 12.105 14.352 13.292 14.097 14.94C13.851 16.54 13.763 17.786 13.822 18.679C13.842 18.924 13.802 19.139 13.704 19.326C13.6556 19.4251 13.5822 19.5098 13.491 19.5717C13.3998 19.6336 13.2939 19.6706 13.184 19.679C12.929 19.699 12.664 19.581 12.409 19.317C11.496 18.384 10.77 16.991 10.24 15.137C9.76092 16.0746 9.2899 17.0163 8.82699 17.962C8.24899 19.072 7.75799 19.64 7.34599 19.67C7.08099 19.69 6.85599 19.464 6.65899 18.993C6.15899 17.707 5.61899 15.225 5.03999 11.545C5.00999 11.29 5.05999 11.065 5.19699 10.888C5.33399 10.702 5.54099 10.604 5.81499 10.584C6.31499 10.544 6.59999 10.78 6.66899 11.29C6.97299 13.341 7.30699 15.078 7.65999 16.5L9.80899 12.41C10.005 12.037 10.25 11.84 10.545 11.821C10.976 11.791 11.241 12.066 11.349 12.645C11.595 13.95 11.909 15.059 12.281 16.001C12.536 13.509 12.968 11.713 13.576 10.604C13.724 10.33 13.939 10.192 14.224 10.173C14.2519 10.1703 14.2799 10.169 14.308 10.169L14.307 10.168ZM18.041 11.231C18.208 11.231 18.384 11.251 18.571 11.291C19.258 11.437 19.787 11.811 20.141 12.428C20.455 12.958 20.611 13.596 20.611 14.361C20.611 15.372 20.357 16.294 19.846 17.138C19.258 18.119 18.492 18.61 17.541 18.61C17.374 18.61 17.197 18.59 17.011 18.551C16.314 18.404 15.794 18.031 15.441 17.413C15.127 16.873 14.97 16.226 14.97 15.47C14.97 14.46 15.225 13.537 15.735 12.703C16.334 11.722 17.099 11.231 18.041 11.231ZM24.193 11.231C24.36 11.231 24.536 11.251 24.723 11.291C25.419 11.437 25.939 11.811 26.293 12.428C26.607 12.958 26.763 13.596 26.763 14.361C26.763 15.372 26.509 16.294 25.998 17.138C25.41 18.119 24.644 18.61 23.693 18.61C23.526 18.61 23.349 18.59 23.163 18.551C22.466 18.404 21.946 18.031 21.593 17.413C21.279 16.873 21.122 16.226 21.122 15.47C21.122 14.46 21.377 13.537 21.887 12.703C22.486 11.722 23.251 11.231 24.193 11.231ZM18.086 12.876C17.779 12.874 17.48 13.077 17.197 13.498C16.9462 13.848 16.7693 14.2454 16.677 14.666C16.627 14.891 16.608 15.136 16.608 15.382C16.608 15.666 16.668 15.971 16.785 16.275C16.932 16.657 17.128 16.864 17.364 16.913C17.609 16.962 17.874 16.853 18.159 16.598C18.522 16.275 18.767 15.794 18.904 15.146C18.954 14.921 18.973 14.676 18.973 14.42C18.9697 14.114 18.91 13.8113 18.797 13.527C18.649 13.145 18.453 12.939 18.217 12.89C18.1738 12.8813 18.13 12.8766 18.086 12.876ZM24.238 12.876C23.931 12.874 23.632 13.077 23.349 13.498C23.0982 13.848 22.9213 14.2454 22.829 14.666C22.78 14.891 22.76 15.136 22.76 15.382C22.76 15.666 22.82 15.971 22.937 16.275C23.084 16.657 23.281 16.864 23.516 16.913C23.761 16.962 24.026 16.853 24.311 16.598C24.674 16.275 24.919 15.794 25.056 15.146C25.096 14.921 25.126 14.676 25.126 14.42C25.1224 14.114 25.0624 13.8113 24.949 13.527C24.801 13.145 24.605 12.939 24.369 12.89C24.3258 12.8813 24.282 12.8766 24.238 12.876Z" fill="white"/>
</g>
<path d="M33.898 21.5L32.403 10.97H34.015L34.886 17.795L35.978 10.996H37.291L38.409 17.795L39.267 10.97H40.853L39.384 21.5H37.824L36.654 14.441L35.497 21.5H33.898ZM45.0069 21.643C44.2616 21.643 43.6679 21.5043 43.2259 21.227C42.7839 20.9497 42.4676 20.551 42.2769 20.031C42.0862 19.511 41.9909 18.8957 41.9909 18.185V14.246C41.9909 13.5353 42.0862 12.9287 42.2769 12.426C42.4676 11.9147 42.7839 11.5247 43.2259 11.256C43.6679 10.9873 44.2616 10.853 45.0069 10.853C45.7696 10.853 46.3676 10.9873 46.8009 11.256C47.2429 11.5247 47.5592 11.9147 47.7499 12.426C47.9492 12.9287 48.0489 13.5353 48.0489 14.246V18.198C48.0489 18.9 47.9492 19.511 47.7499 20.031C47.5592 20.5423 47.2429 20.941 46.8009 21.227C46.3676 21.5043 45.7696 21.643 45.0069 21.643ZM45.0069 20.226C45.3276 20.226 45.5616 20.1567 45.7089 20.018C45.8649 19.8793 45.9689 19.6887 46.0209 19.446C46.0729 19.2033 46.0989 18.939 46.0989 18.653V13.804C46.0989 13.5093 46.0729 13.245 46.0209 13.011C45.9689 12.777 45.8649 12.595 45.7089 12.465C45.5616 12.3263 45.3276 12.257 45.0069 12.257C44.7036 12.257 44.4739 12.3263 44.3179 12.465C44.1619 12.595 44.0579 12.777 44.0059 13.011C43.9539 13.245 43.9279 13.5093 43.9279 13.804V18.653C43.9279 18.939 43.9496 19.2033 43.9929 19.446C44.0449 19.6887 44.1489 19.8793 44.3049 20.018C44.4609 20.1567 44.6949 20.226 45.0069 20.226ZM52.4946 21.643C51.7493 21.643 51.1556 21.5043 50.7136 21.227C50.2716 20.9497 49.9553 20.551 49.7646 20.031C49.5739 19.511 49.4786 18.8957 49.4786 18.185V14.246C49.4786 13.5353 49.5739 12.9287 49.7646 12.426C49.9553 11.9147 50.2716 11.5247 50.7136 11.256C51.1556 10.9873 51.7493 10.853 52.4946 10.853C53.2573 10.853 53.8553 10.9873 54.2886 11.256C54.7306 11.5247 55.0469 11.9147 55.2376 12.426C55.4369 12.9287 55.5366 13.5353 55.5366 14.246V18.198C55.5366 18.9 55.4369 19.511 55.2376 20.031C55.0469 20.5423 54.7306 20.941 54.2886 21.227C53.8553 21.5043 53.2573 21.643 52.4946 21.643ZM52.4946 20.226C52.8153 20.226 53.0493 20.1567 53.1966 20.018C53.3526 19.8793 53.4566 19.6887 53.5086 19.446C53.5606 19.2033 53.5866 18.939 53.5866 18.653V13.804C53.5866 13.5093 53.5606 13.245 53.5086 13.011C53.4566 12.777 53.3526 12.595 53.1966 12.465C53.0493 12.3263 52.8153 12.257 52.4946 12.257C52.1913 12.257 51.9616 12.3263 51.8056 12.465C51.6496 12.595 51.5456 12.777 51.4936 13.011C51.4416 13.245 51.4156 13.5093 51.4156 13.804V18.653C51.4156 18.939 51.4373 19.2033 51.4806 19.446C51.5326 19.6887 51.6366 19.8793 51.7926 20.018C51.9486 20.1567 52.1826 20.226 52.4946 20.226ZM59.9563 21.643C59.185 21.643 58.5783 21.4913 58.1363 21.188C57.703 20.8847 57.3996 20.473 57.2263 19.953C57.053 19.4243 56.9663 18.8177 56.9663 18.133V14.376C56.9663 13.6567 57.053 13.0327 57.2263 12.504C57.3996 11.9753 57.703 11.568 58.1363 11.282C58.5783 10.996 59.185 10.853 59.9563 10.853C60.6843 10.853 61.252 10.9787 61.6593 11.23C62.0753 11.4727 62.37 11.8237 62.5433 12.283C62.7166 12.7423 62.8033 13.2753 62.8033 13.882V14.766H60.9573V13.856C60.9573 13.5613 60.94 13.2927 60.9053 13.05C60.8793 12.8073 60.797 12.6167 60.6583 12.478C60.5283 12.3307 60.2986 12.257 59.9693 12.257C59.64 12.257 59.3973 12.335 59.2413 12.491C59.094 12.6383 58.9986 12.842 58.9553 13.102C58.912 13.3533 58.8903 13.6393 58.8903 13.96V18.536C58.8903 18.9173 58.9206 19.2337 58.9813 19.485C59.042 19.7277 59.1503 19.914 59.3063 20.044C59.471 20.1653 59.692 20.226 59.9693 20.226C60.29 20.226 60.5153 20.1523 60.6453 20.005C60.784 19.849 60.8706 19.6453 60.9053 19.394C60.94 19.1427 60.9573 18.861 60.9573 18.549V17.6H62.8033V18.445C62.8033 19.069 62.721 19.6237 62.5563 20.109C62.3916 20.5857 62.1013 20.9627 61.6853 21.24C61.278 21.5087 60.7016 21.643 59.9563 21.643ZM67.1653 21.643C66.42 21.643 65.8263 21.5043 65.3843 21.227C64.9423 20.9497 64.626 20.551 64.4353 20.031C64.2446 19.511 64.1493 18.8957 64.1493 18.185V14.246C64.1493 13.5353 64.2446 12.9287 64.4353 12.426C64.626 11.9147 64.9423 11.5247 65.3843 11.256C65.8263 10.9873 66.42 10.853 67.1653 10.853C67.928 10.853 68.526 10.9873 68.9593 11.256C69.4013 11.5247 69.7176 11.9147 69.9083 12.426C70.1076 12.9287 70.2073 13.5353 70.2073 14.246V18.198C70.2073 18.9 70.1076 19.511 69.9083 20.031C69.7176 20.5423 69.4013 20.941 68.9593 21.227C68.526 21.5043 67.928 21.643 67.1653 21.643ZM67.1653 20.226C67.486 20.226 67.72 20.1567 67.8673 20.018C68.0233 19.8793 68.1273 19.6887 68.1793 19.446C68.2313 19.2033 68.2573 18.939 68.2573 18.653V13.804C68.2573 13.5093 68.2313 13.245 68.1793 13.011C68.1273 12.777 68.0233 12.595 67.8673 12.465C67.72 12.3263 67.486 12.257 67.1653 12.257C66.862 12.257 66.6323 12.3263 66.4763 12.465C66.3203 12.595 66.2163 12.777 66.1643 13.011C66.1123 13.245 66.0863 13.5093 66.0863 13.804V18.653C66.0863 18.939 66.108 19.2033 66.1513 19.446C66.2033 19.6887 66.3073 19.8793 66.4633 20.018C66.6193 20.1567 66.8533 20.226 67.1653 20.226ZM71.767 21.5L71.949 10.97H73.938L75.433 18.263L76.993 10.97H78.917L79.112 21.5H77.682L77.526 14.181L76.031 21.5H74.874L73.353 14.155L73.21 21.5H71.767ZM80.8035 21.5L80.9855 10.97H82.9745L84.4695 18.263L86.0295 10.97H87.9535L88.1485 21.5H86.7185L86.5625 14.181L85.0675 21.5H83.9105L82.3895 14.155L82.2465 21.5H80.8035ZM89.866 21.5V10.97H94.286V12.322H91.79V15.351H93.753V16.69H91.79V20.174H94.312V21.5H89.866ZM95.5891 21.5V10.97H98.1111C98.8218 10.97 99.4198 11.0567 99.9051 11.23C100.399 11.3947 100.772 11.6807 101.023 12.088C101.283 12.4953 101.413 13.05 101.413 13.752C101.413 14.1767 101.374 14.558 101.296 14.896C101.218 15.234 101.084 15.5243 100.893 15.767C100.711 16.001 100.455 16.183 100.126 16.313L101.595 21.5H99.6711L98.3971 16.677H97.5131V21.5H95.5891ZM97.5131 15.468H98.1111C98.4838 15.468 98.7784 15.416 98.9951 15.312C99.2204 15.1993 99.3808 15.026 99.4761 14.792C99.5714 14.5493 99.6191 14.2417 99.6191 13.869C99.6191 13.3403 99.5194 12.946 99.3201 12.686C99.1294 12.4173 98.7611 12.283 98.2151 12.283H97.5131V15.468ZM105.822 21.643C105.051 21.643 104.444 21.4913 104.002 21.188C103.569 20.8847 103.265 20.473 103.092 19.953C102.919 19.4243 102.832 18.8177 102.832 18.133V14.376C102.832 13.6567 102.919 13.0327 103.092 12.504C103.265 11.9753 103.569 11.568 104.002 11.282C104.444 10.996 105.051 10.853 105.822 10.853C106.55 10.853 107.118 10.9787 107.525 11.23C107.941 11.4727 108.236 11.8237 108.409 12.283C108.582 12.7423 108.669 13.2753 108.669 13.882V14.766H106.823V13.856C106.823 13.5613 106.806 13.2927 106.771 13.05C106.745 12.8073 106.663 12.6167 106.524 12.478C106.394 12.3307 106.164 12.257 105.835 12.257C105.506 12.257 105.263 12.335 105.107 12.491C104.96 12.6383 104.864 12.842 104.821 13.102C104.778 13.3533 104.756 13.6393 104.756 13.96V18.536C104.756 18.9173 104.786 19.2337 104.847 19.485C104.908 19.7277 105.016 19.914 105.172 20.044C105.337 20.1653 105.558 20.226 105.835 20.226C106.156 20.226 106.381 20.1523 106.511 20.005C106.65 19.849 106.736 19.6453 106.771 19.394C106.806 19.1427 106.823 18.861 106.823 18.549V17.6H108.669V18.445C108.669 19.069 108.587 19.6237 108.422 20.109C108.257 20.5857 107.967 20.9627 107.551 21.24C107.144 21.5087 106.567 21.643 105.822 21.643ZM110.171 21.5V10.97H114.591V12.322H112.095V15.351H114.058V16.69H112.095V20.174H114.617V21.5H110.171Z" fill="white"/>
<defs>
<clipPath id="clip0_30_36">
<rect width="24" height="24" fill="white" transform="translate(4 4)"/>
</clipPath>
</defs>
</svg>
