<svg width="101" height="32" viewBox="0 0 101 32" fill="none" xmlns="http://www.w3.org/2000/svg">
<rect width="101" height="32" rx="2" fill="#151515"/>
<path d="M25.469 10.825C26.309 12.362 26.787 14.125 26.787 16C26.787 19.979 24.631 23.456 21.424 25.325L24.719 15.798C25.334 14.258 25.539 13.027 25.539 11.934C25.539 11.529 25.513 11.155 25.469 10.825ZM17.488 10.929C18.135 10.899 18.72 10.824 18.72 10.824C19.302 10.749 19.234 9.894 18.653 9.925C18.653 9.925 16.898 10.06 15.773 10.06C14.709 10.06 12.923 9.91 12.923 9.91C12.338 9.88 12.262 10.765 12.848 10.795C12.848 10.795 13.388 10.856 13.973 10.885L15.653 15.49L13.283 22.57L9.354 10.9C10.003 10.87 10.588 10.8 10.588 10.8C11.173 10.725 11.104 9.87 10.523 9.904C10.523 9.904 8.777 10.042 7.649 10.042C7.449 10.042 7.211 10.034 6.959 10.027C8.911 7.15 12.235 5.215 16 5.215C18.809 5.215 21.365 6.287 23.286 8.048C23.24 8.045 23.195 8.039 23.145 8.039C22.085 8.039 21.333 8.962 21.333 9.953C21.333 10.843 21.846 11.596 22.393 12.484C22.804 13.204 23.283 14.127 23.283 15.461C23.283 16.376 22.929 17.455 22.462 18.94L21.387 22.525L17.487 10.915L17.488 10.929ZM16 26.784C14.941 26.784 13.919 26.631 12.952 26.347L16.189 16.941L19.504 26.028C19.528 26.081 19.554 26.129 19.582 26.177C18.462 26.57 17.257 26.786 16 26.786M5.211 16C5.211 14.436 5.547 12.95 6.146 11.61L11.29 25.709C7.694 23.96 5.212 20.271 5.211 16ZM16 4C9.385 4 4 9.385 4 16C4 22.615 9.385 28 16 28C22.615 28 28 22.615 28 16C28 9.385 22.615 4 16 4Z" fill="white"/>
<path d="M33.898 21.5L32.403 10.97H34.015L34.886 17.795L35.978 10.996H37.291L38.409 17.795L39.267 10.97H40.853L39.384 21.5H37.824L36.654 14.441L35.497 21.5H33.898ZM45.0069 21.643C44.2616 21.643 43.6679 21.5043 43.2259 21.227C42.7839 20.9497 42.4676 20.551 42.2769 20.031C42.0862 19.511 41.9909 18.8957 41.9909 18.185V14.246C41.9909 13.5353 42.0862 12.9287 42.2769 12.426C42.4676 11.9147 42.7839 11.5247 43.2259 11.256C43.6679 10.9873 44.2616 10.853 45.0069 10.853C45.7696 10.853 46.3676 10.9873 46.8009 11.256C47.2429 11.5247 47.5592 11.9147 47.7499 12.426C47.9492 12.9287 48.0489 13.5353 48.0489 14.246V18.198C48.0489 18.9 47.9492 19.511 47.7499 20.031C47.5592 20.5423 47.2429 20.941 46.8009 21.227C46.3676 21.5043 45.7696 21.643 45.0069 21.643ZM45.0069 20.226C45.3276 20.226 45.5616 20.1567 45.7089 20.018C45.8649 19.8793 45.9689 19.6887 46.0209 19.446C46.0729 19.2033 46.0989 18.939 46.0989 18.653V13.804C46.0989 13.5093 46.0729 13.245 46.0209 13.011C45.9689 12.777 45.8649 12.595 45.7089 12.465C45.5616 12.3263 45.3276 12.257 45.0069 12.257C44.7036 12.257 44.4739 12.3263 44.3179 12.465C44.1619 12.595 44.0579 12.777 44.0059 13.011C43.9539 13.245 43.9279 13.5093 43.9279 13.804V18.653C43.9279 18.939 43.9496 19.2033 43.9929 19.446C44.0449 19.6887 44.1489 19.8793 44.3049 20.018C44.4609 20.1567 44.6949 20.226 45.0069 20.226ZM49.6346 21.5V10.97H52.1566C52.8673 10.97 53.4653 11.0567 53.9506 11.23C54.4446 11.3947 54.8173 11.6807 55.0686 12.088C55.3286 12.4953 55.4586 13.05 55.4586 13.752C55.4586 14.1767 55.4196 14.558 55.3416 14.896C55.2636 15.234 55.1293 15.5243 54.9386 15.767C54.7566 16.001 54.5009 16.183 54.1716 16.313L55.6406 21.5H53.7166L52.4426 16.677H51.5586V21.5H49.6346ZM51.5586 15.468H52.1566C52.5293 15.468 52.8239 15.416 53.0406 15.312C53.2659 15.1993 53.4263 15.026 53.5216 14.792C53.6169 14.5493 53.6646 14.2417 53.6646 13.869C53.6646 13.3403 53.5649 12.946 53.3656 12.686C53.1749 12.4173 52.8066 12.283 52.2606 12.283H51.5586V15.468ZM57.0842 21.5V10.97H59.5672C60.4252 10.97 61.0925 11.087 61.5692 11.321C62.0545 11.555 62.3969 11.9147 62.5962 12.4C62.8042 12.8853 62.9082 13.5007 62.9082 14.246V18.094C62.9082 18.8567 62.8042 19.4937 62.5962 20.005C62.3969 20.5077 62.0589 20.8847 61.5822 21.136C61.1142 21.3787 60.4685 21.5 59.6452 21.5H57.0842ZM59.0082 20.161H59.5932C60.0352 20.161 60.3515 20.083 60.5422 19.927C60.7329 19.771 60.8499 19.5457 60.8932 19.251C60.9365 18.9477 60.9582 18.5793 60.9582 18.146V14.116C60.9582 13.6913 60.9279 13.349 60.8672 13.089C60.8065 12.829 60.6809 12.6383 60.4902 12.517C60.2995 12.3957 59.9919 12.335 59.5672 12.335H59.0082V20.161ZM64.483 21.5V10.97H67.577C68.2097 10.97 68.721 11.087 69.111 11.321C69.5097 11.555 69.8 11.8973 69.982 12.348C70.1727 12.79 70.268 13.3273 70.268 13.96C70.268 14.6447 70.151 15.1993 69.917 15.624C69.683 16.04 69.3537 16.3433 68.929 16.534C68.513 16.7247 68.019 16.82 67.447 16.82H66.407V21.5H64.483ZM66.407 15.468H67.135C67.4817 15.468 67.7504 15.4203 67.941 15.325C68.1404 15.221 68.2747 15.0607 68.344 14.844C68.422 14.6187 68.461 14.3197 68.461 13.947C68.461 13.5657 68.4307 13.258 68.37 13.024C68.318 12.7813 68.1967 12.6037 68.006 12.491C67.824 12.3783 67.5337 12.322 67.135 12.322H66.407V15.468ZM71.501 21.5V10.97H74.023C74.7337 10.97 75.3317 11.0567 75.817 11.23C76.311 11.3947 76.6837 11.6807 76.935 12.088C77.195 12.4953 77.325 13.05 77.325 13.752C77.325 14.1767 77.286 14.558 77.208 14.896C77.13 15.234 76.9957 15.5243 76.805 15.767C76.623 16.001 76.3673 16.183 76.038 16.313L77.507 21.5H75.583L74.309 16.677H73.425V21.5H71.501ZM73.425 15.468H74.023C74.3957 15.468 74.6903 15.416 74.907 15.312C75.1323 15.1993 75.2927 15.026 75.388 14.792C75.4833 14.5493 75.531 14.2417 75.531 13.869C75.531 13.3403 75.4313 12.946 75.232 12.686C75.0413 12.4173 74.673 12.283 74.127 12.283H73.425V15.468ZM78.9506 21.5V10.97H83.3706V12.322H80.8746V15.351H82.8376V16.69H80.8746V20.174H83.3966V21.5H78.9506ZM87.3257 21.643C86.693 21.643 86.1643 21.5217 85.7397 21.279C85.315 21.0277 84.9943 20.6637 84.7777 20.187C84.561 19.7103 84.4397 19.1253 84.4137 18.432L86.0647 18.107C86.082 18.5143 86.1297 18.874 86.2077 19.186C86.2943 19.498 86.42 19.7407 86.5847 19.914C86.758 20.0787 86.9833 20.161 87.2607 20.161C87.5727 20.161 87.7937 20.07 87.9237 19.888C88.0537 19.6973 88.1187 19.459 88.1187 19.173C88.1187 18.7137 88.0147 18.3367 87.8067 18.042C87.5987 17.7473 87.3213 17.4527 86.9747 17.158L85.6487 15.988C85.276 15.6673 84.977 15.312 84.7517 14.922C84.535 14.5233 84.4267 14.0337 84.4267 13.453C84.4267 12.621 84.6693 11.9797 85.1547 11.529C85.64 11.0783 86.303 10.853 87.1437 10.853C87.6377 10.853 88.0493 10.931 88.3787 11.087C88.708 11.2343 88.968 11.4423 89.1587 11.711C89.358 11.9797 89.5053 12.2873 89.6007 12.634C89.696 12.972 89.7567 13.3317 89.7827 13.713L88.1447 13.999C88.1273 13.6697 88.0883 13.375 88.0277 13.115C87.9757 12.855 87.876 12.6513 87.7287 12.504C87.59 12.3567 87.382 12.283 87.1047 12.283C86.8187 12.283 86.5977 12.3783 86.4417 12.569C86.2943 12.751 86.2207 12.9807 86.2207 13.258C86.2207 13.6133 86.2943 13.908 86.4417 14.142C86.589 14.3673 86.8013 14.6013 87.0787 14.844L88.3917 16.001C88.825 16.365 89.1933 16.794 89.4967 17.288C89.8087 17.7733 89.9647 18.3627 89.9647 19.056C89.9647 19.5587 89.852 20.005 89.6267 20.395C89.41 20.785 89.1023 21.0927 88.7037 21.318C88.3137 21.5347 87.8543 21.643 87.3257 21.643ZM93.8104 21.643C93.1778 21.643 92.6491 21.5217 92.2244 21.279C91.7998 21.0277 91.4791 20.6637 91.2624 20.187C91.0458 19.7103 90.9244 19.1253 90.8984 18.432L92.5494 18.107C92.5668 18.5143 92.6144 18.874 92.6924 19.186C92.7791 19.498 92.9048 19.7407 93.0694 19.914C93.2428 20.0787 93.4681 20.161 93.7454 20.161C94.0574 20.161 94.2784 20.07 94.4084 19.888C94.5384 19.6973 94.6034 19.459 94.6034 19.173C94.6034 18.7137 94.4994 18.3367 94.2914 18.042C94.0834 17.7473 93.8061 17.4527 93.4594 17.158L92.1334 15.988C91.7608 15.6673 91.4618 15.312 91.2364 14.922C91.0198 14.5233 90.9114 14.0337 90.9114 13.453C90.9114 12.621 91.1541 11.9797 91.6394 11.529C92.1248 11.0783 92.7878 10.853 93.6284 10.853C94.1224 10.853 94.5341 10.931 94.8634 11.087C95.1928 11.2343 95.4528 11.4423 95.6434 11.711C95.8428 11.9797 95.9901 12.2873 96.0854 12.634C96.1808 12.972 96.2414 13.3317 96.2674 13.713L94.6294 13.999C94.6121 13.6697 94.5731 13.375 94.5124 13.115C94.4604 12.855 94.3608 12.6513 94.2134 12.504C94.0748 12.3567 93.8668 12.283 93.5894 12.283C93.3034 12.283 93.0824 12.3783 92.9264 12.569C92.7791 12.751 92.7054 12.9807 92.7054 13.258C92.7054 13.6133 92.7791 13.908 92.9264 14.142C93.0738 14.3673 93.2861 14.6013 93.5634 14.844L94.8764 16.001C95.3098 16.365 95.6781 16.794 95.9814 17.288C96.2934 17.7733 96.4494 18.3627 96.4494 19.056C96.4494 19.5587 96.3368 20.005 96.1114 20.395C95.8948 20.785 95.5871 21.0927 95.1884 21.318C94.7984 21.5347 94.3391 21.643 93.8104 21.643Z" fill="white"/>
</svg>
