<svg width="139" height="32" viewBox="0 0 139 32" fill="none" xmlns="http://www.w3.org/2000/svg">
<rect width="139" height="32" rx="2" fill="#151515"/>
<path d="M13.85 12.4205C13.48 12.2705 13.08 12.2105 12.67 12.2205C12.41 12.2205 12.18 12.2205 11.99 12.2305C11.79 12.2205 11.65 12.2305 11.58 12.2405V15.6005C11.72 15.6105 11.85 15.6205 11.97 15.6205H12.5C12.89 15.6205 13.28 15.5605 13.65 15.4405C13.97 15.3505 14.25 15.1605 14.47 14.9105C14.68 14.6605 14.78 14.3205 14.78 13.8805C14.79 13.5705 14.71 13.2605 14.55 12.9905C14.38 12.7305 14.14 12.5305 13.85 12.4205ZM23.75 4.30051H8.25C5.9 4.30051 4 6.20051 4 8.55051V23.4495C4 25.7995 5.9 27.6995 8.25 27.6995H23.75C26.1 27.6995 28 25.7995 28 23.4495V8.55051C28 6.20051 26.1 4.30051 23.75 4.30051ZM16.359 15.9505C15.96 16.5105 15.4 16.9305 14.75 17.1705C14.07 17.4205 13.32 17.5105 12.5 17.5105C12.26 17.5105 12.1 17.5105 12 17.5005C11.9 17.4905 11.76 17.4905 11.57 17.4905V20.6995C11.58 20.7695 11.53 20.8305 11.46 20.8405H9.52C9.44 20.8405 9.4 20.7995 9.4 20.7095V10.4205C9.4 10.3505 9.43 10.3105 9.5 10.3105C9.67 10.3105 9.83 10.3105 10.06 10.3005C10.3 10.2905 10.55 10.2905 10.82 10.2805C11.09 10.2705 11.38 10.2705 11.69 10.2605C12 10.2505 12.3 10.2505 12.6 10.2505C13.42 10.2505 14.1 10.3505 14.66 10.5605C15.16 10.7305 15.62 11.0105 16 11.3805C16.32 11.7005 16.57 12.0905 16.73 12.5205C16.879 12.9405 16.959 13.3705 16.959 13.8205C16.96 14.6805 16.76 15.3905 16.359 15.9505ZM23.45 19.8405C23.17 20.2405 22.779 20.5495 22.33 20.7315C21.84 20.9405 21.24 21.0495 20.519 21.0495C20.06 21.0495 19.609 21.0105 19.16 20.9205C18.81 20.8595 18.46 20.7505 18.14 20.6005C18.07 20.5615 18.019 20.4915 18.029 20.4115V18.6715C18.029 18.6425 18.04 18.6015 18.07 18.5815C18.099 18.5615 18.13 18.5715 18.16 18.5915C18.55 18.8215 18.96 18.9825 19.4 19.0815C19.779 19.1815 20.179 19.2315 20.58 19.2315C20.96 19.2315 21.23 19.1805 21.41 19.0905C21.57 19.0205 21.68 18.8505 21.68 18.6705C21.68 18.5295 21.6 18.4005 21.44 18.2705C21.28 18.1415 20.951 17.9915 20.461 17.7995C19.951 17.6195 19.482 17.3795 19.041 17.0805C18.731 16.8595 18.472 16.5705 18.28 16.2305C18.121 15.9105 18.041 15.5605 18.051 15.2095C18.051 14.7795 18.171 14.3695 18.392 13.9995C18.642 13.5995 19.011 13.2795 19.441 13.0795C19.91 12.8405 20.5 12.7305 21.21 12.7305C21.62 12.7305 22.04 12.7605 22.45 12.8205C22.75 12.8605 23.04 12.9405 23.31 13.0505C23.349 13.0605 23.39 13.1005 23.41 13.1405C23.42 13.1805 23.43 13.2205 23.43 13.2605V14.8905C23.43 14.9305 23.41 14.9705 23.38 14.9905C23.29 15.0105 23.24 15.0105 23.2 14.9905C22.9 14.8305 22.58 14.7205 22.24 14.6505C21.87 14.5705 21.5 14.5205 21.12 14.5205C20.92 14.5105 20.71 14.5405 20.519 14.5905C20.39 14.6205 20.279 14.6905 20.209 14.7905C20.159 14.8705 20.129 14.9705 20.129 15.0605C20.129 15.1505 20.169 15.2405 20.23 15.3205C20.32 15.4305 20.439 15.5205 20.57 15.5905C20.799 15.7105 21.04 15.8205 21.279 15.9205C21.82 16.1005 22.34 16.3505 22.82 16.6505C23.15 16.8595 23.42 17.1405 23.609 17.4805C23.769 17.7985 23.849 18.1505 23.839 18.5095C23.85 18.9805 23.71 19.4495 23.45 19.8405Z" fill="white"/>
<path d="M32.26 21.5L34.366 10.97H36.42L38.526 21.5H36.745L36.329 19.069H34.496L34.067 21.5H32.26ZM34.691 17.847H36.121L35.406 13.427L34.691 17.847ZM39.7475 21.5V10.97H42.2305C43.0885 10.97 43.7558 11.087 44.2325 11.321C44.7178 11.555 45.0602 11.9147 45.2595 12.4C45.4675 12.8853 45.5715 13.5007 45.5715 14.246V18.094C45.5715 18.8567 45.4675 19.4937 45.2595 20.005C45.0602 20.5077 44.7222 20.8847 44.2455 21.136C43.7775 21.3787 43.1318 21.5 42.3085 21.5H39.7475ZM41.6715 20.161H42.2565C42.6985 20.161 43.0148 20.083 43.2055 19.927C43.3962 19.771 43.5132 19.5457 43.5565 19.251C43.5998 18.9477 43.6215 18.5793 43.6215 18.146V14.116C43.6215 13.6913 43.5912 13.349 43.5305 13.089C43.4698 12.829 43.3442 12.6383 43.1535 12.517C42.9628 12.3957 42.6552 12.335 42.2305 12.335H41.6715V20.161ZM50.0063 21.643C49.261 21.643 48.6673 21.5043 48.2253 21.227C47.7833 20.9497 47.467 20.551 47.2763 20.031C47.0857 19.511 46.9903 18.8957 46.9903 18.185V14.246C46.9903 13.5353 47.0857 12.9287 47.2763 12.426C47.467 11.9147 47.7833 11.5247 48.2253 11.256C48.6673 10.9873 49.261 10.853 50.0063 10.853C50.769 10.853 51.367 10.9873 51.8003 11.256C52.2423 11.5247 52.5587 11.9147 52.7493 12.426C52.9487 12.9287 53.0483 13.5353 53.0483 14.246V18.198C53.0483 18.9 52.9487 19.511 52.7493 20.031C52.5587 20.5423 52.2423 20.941 51.8003 21.227C51.367 21.5043 50.769 21.643 50.0063 21.643ZM50.0063 20.226C50.327 20.226 50.561 20.1567 50.7083 20.018C50.8643 19.8793 50.9683 19.6887 51.0203 19.446C51.0723 19.2033 51.0983 18.939 51.0983 18.653V13.804C51.0983 13.5093 51.0723 13.245 51.0203 13.011C50.9683 12.777 50.8643 12.595 50.7083 12.465C50.561 12.3263 50.327 12.257 50.0063 12.257C49.703 12.257 49.4733 12.3263 49.3173 12.465C49.1613 12.595 49.0573 12.777 49.0053 13.011C48.9533 13.245 48.9273 13.5093 48.9273 13.804V18.653C48.9273 18.939 48.949 19.2033 48.9923 19.446C49.0443 19.6887 49.1483 19.8793 49.3043 20.018C49.4603 20.1567 49.6943 20.226 50.0063 20.226ZM54.634 21.5V10.97H57.221C57.689 10.97 58.1093 11.0133 58.482 11.1C58.8633 11.1867 59.1883 11.334 59.457 11.542C59.7343 11.7413 59.9467 12.0143 60.094 12.361C60.2413 12.7077 60.315 13.1453 60.315 13.674C60.315 14.0987 60.2543 14.4627 60.133 14.766C60.0203 15.0693 59.8513 15.312 59.626 15.494C59.4007 15.6673 59.119 15.7843 58.781 15.845C59.197 15.9143 59.5393 16.0617 59.808 16.287C60.0853 16.5037 60.289 16.7897 60.419 17.145C60.5577 17.5003 60.627 17.9293 60.627 18.432C60.627 18.9347 60.562 19.381 60.432 19.771C60.3107 20.1523 60.1243 20.473 59.873 20.733C59.6303 20.9843 59.3227 21.175 58.95 21.305C58.586 21.435 58.157 21.5 57.663 21.5H54.634ZM56.558 20.148H57.286C57.8667 20.148 58.261 20.0093 58.469 19.732C58.677 19.446 58.781 19.0083 58.781 18.419C58.781 17.9943 58.729 17.652 58.625 17.392C58.5297 17.1233 58.365 16.924 58.131 16.794C57.9057 16.664 57.6023 16.599 57.221 16.599H56.558V20.148ZM56.558 15.273H57.208C57.5893 15.273 57.884 15.2167 58.092 15.104C58.3 14.9913 58.443 14.818 58.521 14.584C58.6077 14.35 58.651 14.0553 58.651 13.7C58.651 13.3273 58.586 13.0413 58.456 12.842C58.3347 12.634 58.1483 12.4953 57.897 12.426C57.6457 12.348 57.325 12.309 56.935 12.309H56.558V15.273ZM62.0328 21.5V10.97H66.4528V12.322H63.9568V15.351H65.9198V16.69H63.9568V20.174H66.4788V21.5H62.0328ZM71.0795 21.5V10.97H74.1735C74.8062 10.97 75.3175 11.087 75.7075 11.321C76.1062 11.555 76.3965 11.8973 76.5785 12.348C76.7692 12.79 76.8645 13.3273 76.8645 13.96C76.8645 14.6447 76.7475 15.1993 76.5135 15.624C76.2795 16.04 75.9502 16.3433 75.5255 16.534C75.1095 16.7247 74.6155 16.82 74.0435 16.82H73.0035V21.5H71.0795ZM73.0035 15.468H73.7315C74.0782 15.468 74.3469 15.4203 74.5375 15.325C74.7369 15.221 74.8712 15.0607 74.9405 14.844C75.0185 14.6187 75.0575 14.3197 75.0575 13.947C75.0575 13.5657 75.0272 13.258 74.9665 13.024C74.9145 12.7813 74.7932 12.6037 74.6025 12.491C74.4205 12.3783 74.1302 12.322 73.7315 12.322H73.0035V15.468ZM78.1235 21.5V10.97H80.0345V15.377H82.1795V10.97H84.1035V21.5H82.1795V16.742H80.0345V21.5H78.1235ZM88.7372 21.643C87.9918 21.643 87.3982 21.5043 86.9562 21.227C86.5142 20.9497 86.1978 20.551 86.0072 20.031C85.8165 19.511 85.7212 18.8957 85.7212 18.185V14.246C85.7212 13.5353 85.8165 12.9287 86.0072 12.426C86.1978 11.9147 86.5142 11.5247 86.9562 11.256C87.3982 10.9873 87.9918 10.853 88.7372 10.853C89.4998 10.853 90.0978 10.9873 90.5312 11.256C90.9732 11.5247 91.2895 11.9147 91.4802 12.426C91.6795 12.9287 91.7792 13.5353 91.7792 14.246V18.198C91.7792 18.9 91.6795 19.511 91.4802 20.031C91.2895 20.5423 90.9732 20.941 90.5312 21.227C90.0978 21.5043 89.4998 21.643 88.7372 21.643ZM88.7372 20.226C89.0578 20.226 89.2918 20.1567 89.4392 20.018C89.5952 19.8793 89.6992 19.6887 89.7512 19.446C89.8032 19.2033 89.8292 18.939 89.8292 18.653V13.804C89.8292 13.5093 89.8032 13.245 89.7512 13.011C89.6992 12.777 89.5952 12.595 89.4392 12.465C89.2918 12.3263 89.0578 12.257 88.7372 12.257C88.4338 12.257 88.2042 12.3263 88.0482 12.465C87.8922 12.595 87.7882 12.777 87.7362 13.011C87.6842 13.245 87.6582 13.5093 87.6582 13.804V18.653C87.6582 18.939 87.6798 19.2033 87.7232 19.446C87.7752 19.6887 87.8792 19.8793 88.0352 20.018C88.1912 20.1567 88.4252 20.226 88.7372 20.226ZM94.3671 21.5V12.387H92.6901V10.97H97.9421V12.387H96.2911V21.5H94.3671ZM101.872 21.643C101.126 21.643 100.533 21.5043 100.091 21.227C99.6488 20.9497 99.3324 20.551 99.1418 20.031C98.9511 19.511 98.8558 18.8957 98.8558 18.185V14.246C98.8558 13.5353 98.9511 12.9287 99.1418 12.426C99.3324 11.9147 99.6488 11.5247 100.091 11.256C100.533 10.9873 101.126 10.853 101.872 10.853C102.634 10.853 103.232 10.9873 103.666 11.256C104.108 11.5247 104.424 11.9147 104.615 12.426C104.814 12.9287 104.914 13.5353 104.914 14.246V18.198C104.914 18.9 104.814 19.511 104.615 20.031C104.424 20.5423 104.108 20.941 103.666 21.227C103.232 21.5043 102.634 21.643 101.872 21.643ZM101.872 20.226C102.192 20.226 102.426 20.1567 102.574 20.018C102.73 19.8793 102.834 19.6887 102.886 19.446C102.938 19.2033 102.964 18.939 102.964 18.653V13.804C102.964 13.5093 102.938 13.245 102.886 13.011C102.834 12.777 102.73 12.595 102.574 12.465C102.426 12.3263 102.192 12.257 101.872 12.257C101.568 12.257 101.339 12.3263 101.183 12.465C101.027 12.595 100.923 12.777 100.871 13.011C100.819 13.245 100.793 13.5093 100.793 13.804V18.653C100.793 18.939 100.814 19.2033 100.858 19.446C100.91 19.6887 101.014 19.8793 101.17 20.018C101.326 20.1567 101.56 20.226 101.872 20.226ZM109.151 21.643C108.519 21.643 107.99 21.5217 107.565 21.279C107.141 21.0277 106.82 20.6637 106.603 20.187C106.387 19.7103 106.265 19.1253 106.239 18.432L107.89 18.107C107.908 18.5143 107.955 18.874 108.033 19.186C108.12 19.498 108.246 19.7407 108.41 19.914C108.584 20.0787 108.809 20.161 109.086 20.161C109.398 20.161 109.619 20.07 109.749 19.888C109.879 19.6973 109.944 19.459 109.944 19.173C109.944 18.7137 109.84 18.3367 109.632 18.042C109.424 17.7473 109.147 17.4527 108.8 17.158L107.474 15.988C107.102 15.6673 106.803 15.312 106.577 14.922C106.361 14.5233 106.252 14.0337 106.252 13.453C106.252 12.621 106.495 11.9797 106.98 11.529C107.466 11.0783 108.129 10.853 108.969 10.853C109.463 10.853 109.875 10.931 110.204 11.087C110.534 11.2343 110.794 11.4423 110.984 11.711C111.184 11.9797 111.331 12.2873 111.426 12.634C111.522 12.972 111.582 13.3317 111.608 13.713L109.97 13.999C109.953 13.6697 109.914 13.375 109.853 13.115C109.801 12.855 109.702 12.6513 109.554 12.504C109.416 12.3567 109.208 12.283 108.93 12.283C108.644 12.283 108.423 12.3783 108.267 12.569C108.12 12.751 108.046 12.9807 108.046 13.258C108.046 13.6133 108.12 13.908 108.267 14.142C108.415 14.3673 108.627 14.6013 108.904 14.844L110.217 16.001C110.651 16.365 111.019 16.794 111.322 17.288C111.634 17.7733 111.79 18.3627 111.79 19.056C111.79 19.5587 111.678 20.005 111.452 20.395C111.236 20.785 110.928 21.0927 110.529 21.318C110.139 21.5347 109.68 21.643 109.151 21.643ZM113.112 21.5V10.97H115.023V15.377H117.168V10.97H119.092V21.5H117.168V16.742H115.023V21.5H113.112ZM123.725 21.643C122.98 21.643 122.386 21.5043 121.944 21.227C121.502 20.9497 121.186 20.551 120.995 20.031C120.805 19.511 120.709 18.8957 120.709 18.185V14.246C120.709 13.5353 120.805 12.9287 120.995 12.426C121.186 11.9147 121.502 11.5247 121.944 11.256C122.386 10.9873 122.98 10.853 123.725 10.853C124.488 10.853 125.086 10.9873 125.519 11.256C125.961 11.5247 126.278 11.9147 126.468 12.426C126.668 12.9287 126.767 13.5353 126.767 14.246V18.198C126.767 18.9 126.668 19.511 126.468 20.031C126.278 20.5423 125.961 20.941 125.519 21.227C125.086 21.5043 124.488 21.643 123.725 21.643ZM123.725 20.226C124.046 20.226 124.28 20.1567 124.427 20.018C124.583 19.8793 124.687 19.6887 124.739 19.446C124.791 19.2033 124.817 18.939 124.817 18.653V13.804C124.817 13.5093 124.791 13.245 124.739 13.011C124.687 12.777 124.583 12.595 124.427 12.465C124.28 12.3263 124.046 12.257 123.725 12.257C123.422 12.257 123.192 12.3263 123.036 12.465C122.88 12.595 122.776 12.777 122.724 13.011C122.672 13.245 122.646 13.5093 122.646 13.804V18.653C122.646 18.939 122.668 19.2033 122.711 19.446C122.763 19.6887 122.867 19.8793 123.023 20.018C123.179 20.1567 123.413 20.226 123.725 20.226ZM128.353 21.5V10.97H131.447C132.08 10.97 132.591 11.087 132.981 11.321C133.38 11.555 133.67 11.8973 133.852 12.348C134.043 12.79 134.138 13.3273 134.138 13.96C134.138 14.6447 134.021 15.1993 133.787 15.624C133.553 16.04 133.224 16.3433 132.799 16.534C132.383 16.7247 131.889 16.82 131.317 16.82H130.277V21.5H128.353ZM130.277 15.468H131.005C131.352 15.468 131.62 15.4203 131.811 15.325C132.01 15.221 132.145 15.0607 132.214 14.844C132.292 14.6187 132.331 14.3197 132.331 13.947C132.331 13.5657 132.301 13.258 132.24 13.024C132.188 12.7813 132.067 12.6037 131.876 12.491C131.694 12.3783 131.404 12.322 131.005 12.322H130.277V15.468Z" fill="white"/>
</svg>
