<svg width="144" height="32" viewBox="0 0 144 32" fill="none" xmlns="http://www.w3.org/2000/svg">
<rect width="144" height="32" rx="2" fill="#151515"/>
<g clip-path="url(#clip0_32_60)">
<path d="M14.53 14.73C14.43 14.42 14.34 14.12 14.24 13.81C14.14 13.5 14.05 13.21 13.97 12.92C13.89 12.64 13.82 12.38 13.75 12.14H13.73C13.64 12.57 13.53 13 13.39 13.43C13.24 13.91 13.09 14.41 12.93 14.91C12.79 15.42 12.64 15.89 12.49 16.31H15.03C14.97 16.099 14.89 15.85 14.8 15.589C14.71 15.32 14.62 15.03 14.53 14.73ZM23.75 4.29999H8.25C5.9 4.29999 4 6.19999 4 8.54999V23.45C4 25.8 5.9 27.7 8.25 27.7H23.75C26.1 27.7 28 25.8 28 23.45V8.54999C28 6.19999 26.1 4.29999 23.75 4.29999ZM18.7 20.83H16.609C16.54 20.84 16.47 20.79 16.45 20.72L15.63 18.34H11.91L11.15 20.69C11.13 20.78 11.05 20.84 10.96 20.831H9.08C8.97 20.831 8.94 20.77 8.97 20.651L12.19 11.38C12.22 11.28 12.25 11.17 12.29 11.05C12.33 10.84 12.35 10.62 12.35 10.4C12.34 10.35 12.38 10.3 12.43 10.29H15.02C15.1 10.29 15.14 10.32 15.15 10.37L18.8 20.67C18.83 20.779 18.8 20.83 18.7 20.83ZM22.1 20.68C22.1 20.79 22.061 20.84 21.971 20.84H20.01C19.91 20.84 19.86 20.779 19.86 20.68V12.98C19.86 12.88 19.901 12.84 19.991 12.84H21.971C22.061 12.84 22.1 12.89 22.1 12.98V20.68ZM21.891 11.65C21.66 11.89 21.32 12.02 20.98 12C20.65 12.01 20.33 11.88 20.089 11.65C19.859 11.4 19.739 11.07 19.749 10.73C19.739 10.39 19.869 10.07 20.108 9.83999C20.35 9.60999 20.67 9.48999 21 9.48999C21.391 9.48999 21.689 9.60999 21.91 9.83999C22.13 10.08 22.25 10.4 22.24 10.73C22.25 11.07 22.13 11.4 21.891 11.65Z" fill="white"/>
</g>
<path d="M32.26 21.5L34.366 10.97H36.42L38.526 21.5H36.745L36.329 19.069H34.496L34.067 21.5H32.26ZM34.691 17.847H36.121L35.406 13.427L34.691 17.847ZM39.7475 21.5V10.97H42.2305C43.0885 10.97 43.7558 11.087 44.2325 11.321C44.7178 11.555 45.0602 11.9147 45.2595 12.4C45.4675 12.8853 45.5715 13.5007 45.5715 14.246V18.094C45.5715 18.8567 45.4675 19.4937 45.2595 20.005C45.0602 20.5077 44.7222 20.8847 44.2455 21.136C43.7775 21.3787 43.1318 21.5 42.3085 21.5H39.7475ZM41.6715 20.161H42.2565C42.6985 20.161 43.0148 20.083 43.2055 19.927C43.3962 19.771 43.5132 19.5457 43.5565 19.251C43.5998 18.9477 43.6215 18.5793 43.6215 18.146V14.116C43.6215 13.6913 43.5912 13.349 43.5305 13.089C43.4698 12.829 43.3442 12.6383 43.1535 12.517C42.9628 12.3957 42.6552 12.335 42.2305 12.335H41.6715V20.161ZM50.0063 21.643C49.261 21.643 48.6673 21.5043 48.2253 21.227C47.7833 20.9497 47.467 20.551 47.2763 20.031C47.0857 19.511 46.9903 18.8957 46.9903 18.185V14.246C46.9903 13.5353 47.0857 12.9287 47.2763 12.426C47.467 11.9147 47.7833 11.5247 48.2253 11.256C48.6673 10.9873 49.261 10.853 50.0063 10.853C50.769 10.853 51.367 10.9873 51.8003 11.256C52.2423 11.5247 52.5587 11.9147 52.7493 12.426C52.9487 12.9287 53.0483 13.5353 53.0483 14.246V18.198C53.0483 18.9 52.9487 19.511 52.7493 20.031C52.5587 20.5423 52.2423 20.941 51.8003 21.227C51.367 21.5043 50.769 21.643 50.0063 21.643ZM50.0063 20.226C50.327 20.226 50.561 20.1567 50.7083 20.018C50.8643 19.8793 50.9683 19.6887 51.0203 19.446C51.0723 19.2033 51.0983 18.939 51.0983 18.653V13.804C51.0983 13.5093 51.0723 13.245 51.0203 13.011C50.9683 12.777 50.8643 12.595 50.7083 12.465C50.561 12.3263 50.327 12.257 50.0063 12.257C49.703 12.257 49.4733 12.3263 49.3173 12.465C49.1613 12.595 49.0573 12.777 49.0053 13.011C48.9533 13.245 48.9273 13.5093 48.9273 13.804V18.653C48.9273 18.939 48.949 19.2033 48.9923 19.446C49.0443 19.6887 49.1483 19.8793 49.3043 20.018C49.4603 20.1567 49.6943 20.226 50.0063 20.226ZM54.634 21.5V10.97H57.221C57.689 10.97 58.1093 11.0133 58.482 11.1C58.8633 11.1867 59.1883 11.334 59.457 11.542C59.7343 11.7413 59.9467 12.0143 60.094 12.361C60.2413 12.7077 60.315 13.1453 60.315 13.674C60.315 14.0987 60.2543 14.4627 60.133 14.766C60.0203 15.0693 59.8513 15.312 59.626 15.494C59.4007 15.6673 59.119 15.7843 58.781 15.845C59.197 15.9143 59.5393 16.0617 59.808 16.287C60.0853 16.5037 60.289 16.7897 60.419 17.145C60.5577 17.5003 60.627 17.9293 60.627 18.432C60.627 18.9347 60.562 19.381 60.432 19.771C60.3107 20.1523 60.1243 20.473 59.873 20.733C59.6303 20.9843 59.3227 21.175 58.95 21.305C58.586 21.435 58.157 21.5 57.663 21.5H54.634ZM56.558 20.148H57.286C57.8667 20.148 58.261 20.0093 58.469 19.732C58.677 19.446 58.781 19.0083 58.781 18.419C58.781 17.9943 58.729 17.652 58.625 17.392C58.5297 17.1233 58.365 16.924 58.131 16.794C57.9057 16.664 57.6023 16.599 57.221 16.599H56.558V20.148ZM56.558 15.273H57.208C57.5893 15.273 57.884 15.2167 58.092 15.104C58.3 14.9913 58.443 14.818 58.521 14.584C58.6077 14.35 58.651 14.0553 58.651 13.7C58.651 13.3273 58.586 13.0413 58.456 12.842C58.3347 12.634 58.1483 12.4953 57.897 12.426C57.6457 12.348 57.325 12.309 56.935 12.309H56.558V15.273ZM62.0328 21.5V10.97H66.4528V12.322H63.9568V15.351H65.9198V16.69H63.9568V20.174H66.4788V21.5H62.0328ZM71.1315 21.5V10.97H73.0295V21.5H71.1315ZM74.8221 21.5V10.97H76.7461V20.174H79.2941V21.5H74.8221ZM80.4563 21.5V10.97H82.3803V20.174H84.9283V21.5H80.4563ZM88.8749 21.643C88.0949 21.643 87.4882 21.5 87.0549 21.214C86.6216 20.928 86.3226 20.5207 86.1579 19.992C85.9932 19.4633 85.9109 18.8307 85.9109 18.094V10.97H87.7829V18.315C87.7829 18.6443 87.8046 18.9563 87.8479 19.251C87.8912 19.537 87.9909 19.771 88.1469 19.953C88.3116 20.1263 88.5542 20.213 88.8749 20.213C89.2129 20.213 89.4556 20.1263 89.6029 19.953C89.7589 19.771 89.8586 19.537 89.9019 19.251C89.9539 18.9563 89.9799 18.6443 89.9799 18.315V10.97H91.8389V18.094C91.8389 18.8307 91.7566 19.4633 91.5919 19.992C91.4272 20.5207 91.1282 20.928 90.6949 21.214C90.2702 21.5 89.6636 21.643 88.8749 21.643ZM96.1667 21.643C95.534 21.643 95.0053 21.5217 94.5807 21.279C94.156 21.0277 93.8353 20.6637 93.6187 20.187C93.402 19.7103 93.2807 19.1253 93.2547 18.432L94.9057 18.107C94.923 18.5143 94.9707 18.874 95.0487 19.186C95.1353 19.498 95.261 19.7407 95.4257 19.914C95.599 20.0787 95.8243 20.161 96.1017 20.161C96.4137 20.161 96.6347 20.07 96.7647 19.888C96.8947 19.6973 96.9597 19.459 96.9597 19.173C96.9597 18.7137 96.8557 18.3367 96.6477 18.042C96.4397 17.7473 96.1623 17.4527 95.8157 17.158L94.4897 15.988C94.117 15.6673 93.818 15.312 93.5927 14.922C93.376 14.5233 93.2677 14.0337 93.2677 13.453C93.2677 12.621 93.5103 11.9797 93.9957 11.529C94.481 11.0783 95.144 10.853 95.9847 10.853C96.4787 10.853 96.8903 10.931 97.2197 11.087C97.549 11.2343 97.809 11.4423 97.9997 11.711C98.199 11.9797 98.3463 12.2873 98.4417 12.634C98.537 12.972 98.5977 13.3317 98.6237 13.713L96.9857 13.999C96.9683 13.6697 96.9293 13.375 96.8687 13.115C96.8167 12.855 96.717 12.6513 96.5697 12.504C96.431 12.3567 96.223 12.283 95.9457 12.283C95.6597 12.283 95.4387 12.3783 95.2827 12.569C95.1353 12.751 95.0617 12.9807 95.0617 13.258C95.0617 13.6133 95.1353 13.908 95.2827 14.142C95.43 14.3673 95.6423 14.6013 95.9197 14.844L97.2327 16.001C97.666 16.365 98.0343 16.794 98.3377 17.288C98.6497 17.7733 98.8057 18.3627 98.8057 19.056C98.8057 19.5587 98.693 20.005 98.4677 20.395C98.251 20.785 97.9433 21.0927 97.5447 21.318C97.1547 21.5347 96.6953 21.643 96.1667 21.643ZM101.154 21.5V12.387H99.477V10.97H104.729V12.387H103.078V21.5H101.154ZM105.849 21.5V10.97H108.371C109.082 10.97 109.68 11.0567 110.165 11.23C110.659 11.3947 111.032 11.6807 111.283 12.088C111.543 12.4953 111.673 13.05 111.673 13.752C111.673 14.1767 111.634 14.558 111.556 14.896C111.478 15.234 111.344 15.5243 111.153 15.767C110.971 16.001 110.716 16.183 110.386 16.313L111.855 21.5H109.931L108.657 16.677H107.773V21.5H105.849ZM107.773 15.468H108.371C108.744 15.468 109.039 15.416 109.255 15.312C109.481 15.1993 109.641 15.026 109.736 14.792C109.832 14.5493 109.879 14.2417 109.879 13.869C109.879 13.3403 109.78 12.946 109.58 12.686C109.39 12.4173 109.021 12.283 108.475 12.283H107.773V15.468ZM112.766 21.5L114.872 10.97H116.926L119.032 21.5H117.251L116.835 19.069H115.002L114.573 21.5H112.766ZM115.197 17.847H116.627L115.912 13.427L115.197 17.847ZM120.811 21.5V12.387H119.134V10.97H124.386V12.387H122.735V21.5H120.811ZM128.316 21.643C127.571 21.643 126.977 21.5043 126.535 21.227C126.093 20.9497 125.777 20.551 125.586 20.031C125.395 19.511 125.3 18.8957 125.3 18.185V14.246C125.3 13.5353 125.395 12.9287 125.586 12.426C125.777 11.9147 126.093 11.5247 126.535 11.256C126.977 10.9873 127.571 10.853 128.316 10.853C129.079 10.853 129.677 10.9873 130.11 11.256C130.552 11.5247 130.868 11.9147 131.059 12.426C131.258 12.9287 131.358 13.5353 131.358 14.246V18.198C131.358 18.9 131.258 19.511 131.059 20.031C130.868 20.5423 130.552 20.941 130.11 21.227C129.677 21.5043 129.079 21.643 128.316 21.643ZM128.316 20.226C128.637 20.226 128.871 20.1567 129.018 20.018C129.174 19.8793 129.278 19.6887 129.33 19.446C129.382 19.2033 129.408 18.939 129.408 18.653V13.804C129.408 13.5093 129.382 13.245 129.33 13.011C129.278 12.777 129.174 12.595 129.018 12.465C128.871 12.3263 128.637 12.257 128.316 12.257C128.013 12.257 127.783 12.3263 127.627 12.465C127.471 12.595 127.367 12.777 127.315 13.011C127.263 13.245 127.237 13.5093 127.237 13.804V18.653C127.237 18.939 127.259 19.2033 127.302 19.446C127.354 19.6887 127.458 19.8793 127.614 20.018C127.77 20.1567 128.004 20.226 128.316 20.226ZM132.944 21.5V10.97H135.466C136.176 10.97 136.774 11.0567 137.26 11.23C137.754 11.3947 138.126 11.6807 138.378 12.088C138.638 12.4953 138.768 13.05 138.768 13.752C138.768 14.1767 138.729 14.558 138.651 14.896C138.573 15.234 138.438 15.5243 138.248 15.767C138.066 16.001 137.81 16.183 137.481 16.313L138.95 21.5H137.026L135.752 16.677H134.868V21.5H132.944ZM134.868 15.468H135.466C135.838 15.468 136.133 15.416 136.35 15.312C136.575 15.1993 136.735 15.026 136.831 14.792C136.926 14.5493 136.974 14.2417 136.974 13.869C136.974 13.3403 136.874 12.946 136.675 12.686C136.484 12.4173 136.116 12.283 135.57 12.283H134.868V15.468Z" fill="white"/>
<defs>
<clipPath id="clip0_32_60">
<rect width="24" height="24" fill="white" transform="translate(4 4)"/>
</clipPath>
</defs>
</svg>
