<svg width="148" height="32" viewBox="0 0 148 32" fill="none" xmlns="http://www.w3.org/2000/svg">
<rect width="148" height="32" rx="2" fill="#151515"/>
<g clip-path="url(#clip0_32_65)">
<path d="M14.15 12.42C13.7746 12.2728 13.3729 12.2048 12.97 12.22C12.6065 12.2124 12.2429 12.2191 11.88 12.24V15.6L12.27 15.62H12.8C13.19 15.62 13.58 15.56 13.95 15.44C14.27 15.35 14.55 15.16 14.77 14.91C14.98 14.66 15.08 14.32 15.08 13.88C15.1026 13.569 15.0243 13.259 14.8568 12.996C14.6892 12.733 14.4414 12.531 14.15 12.42ZM23.75 4.29999H8.25C7.12283 4.29999 6.04183 4.74775 5.2448 5.54478C4.44777 6.34181 4 7.42282 4 8.54999L4 23.45C4 25.8 5.9 27.7 8.25 27.7H23.75C26.1 27.7 28 25.8 28 23.45V8.54999C28 6.19999 26.1 4.29999 23.75 4.29999ZM16.66 15.95C16.26 16.51 15.7 16.93 15.05 17.17C14.37 17.42 13.62 17.51 12.8 17.51L12.3 17.5L11.87 17.49V20.7C11.8728 20.7165 11.8722 20.7335 11.8681 20.7497C11.8639 20.766 11.8565 20.7812 11.8461 20.7944C11.8357 20.8076 11.8227 20.8185 11.8079 20.8263C11.793 20.8342 11.7767 20.8388 11.76 20.84H9.82C9.74 20.84 9.7 20.8 9.7 20.71V10.42C9.7 10.35 9.73 10.31 9.8 10.31L10.36 10.3L11.12 10.28L11.99 10.26L12.9 10.25C13.72 10.25 14.4 10.35 14.96 10.56C15.46 10.73 15.92 11.01 16.3 11.38C16.62 11.7 16.87 12.09 17.03 12.52C17.18 12.94 17.26 13.37 17.26 13.82C17.26 14.68 17.06 15.39 16.66 15.95ZM23.48 12.8V14.75C23.48 14.83 23.43 14.86 23.32 14.86C22.6602 14.836 22.0036 14.9625 21.4 15.23C21.21 15.32 21.03 15.44 20.89 15.6V20.7C20.89 20.8 20.85 20.84 20.76 20.84H18.79C18.7716 20.8428 18.7528 20.8419 18.7347 20.8374C18.7167 20.8329 18.6997 20.8248 18.6848 20.8136C18.6699 20.8024 18.6574 20.7884 18.648 20.7723C18.6386 20.7562 18.6324 20.7385 18.63 20.72V15.14L18.62 14.39L18.6 13.61C18.6 13.38 18.58 13.16 18.56 12.93C18.5566 12.9063 18.5618 12.8822 18.5746 12.862C18.5875 12.8418 18.6071 12.8269 18.63 12.82H20.41C20.51 12.82 20.59 12.89 20.61 12.98C20.7004 13.2781 20.7442 13.5885 20.74 13.9C21.04 13.55 21.41 13.26 21.82 13.04C22.2848 12.7818 22.8083 12.6475 23.34 12.65C23.41 12.64 23.47 12.69 23.48 12.76V12.8Z" fill="white"/>
</g>
<path d="M32.26 21.5L34.366 10.97H36.42L38.526 21.5H36.745L36.329 19.069H34.496L34.067 21.5H32.26ZM34.691 17.847H36.121L35.406 13.427L34.691 17.847ZM39.7475 21.5V10.97H42.2305C43.0885 10.97 43.7558 11.087 44.2325 11.321C44.7178 11.555 45.0602 11.9147 45.2595 12.4C45.4675 12.8853 45.5715 13.5007 45.5715 14.246V18.094C45.5715 18.8567 45.4675 19.4937 45.2595 20.005C45.0602 20.5077 44.7222 20.8847 44.2455 21.136C43.7775 21.3787 43.1318 21.5 42.3085 21.5H39.7475ZM41.6715 20.161H42.2565C42.6985 20.161 43.0148 20.083 43.2055 19.927C43.3962 19.771 43.5132 19.5457 43.5565 19.251C43.5998 18.9477 43.6215 18.5793 43.6215 18.146V14.116C43.6215 13.6913 43.5912 13.349 43.5305 13.089C43.4698 12.829 43.3442 12.6383 43.1535 12.517C42.9628 12.3957 42.6552 12.335 42.2305 12.335H41.6715V20.161ZM50.0063 21.643C49.261 21.643 48.6673 21.5043 48.2253 21.227C47.7833 20.9497 47.467 20.551 47.2763 20.031C47.0857 19.511 46.9903 18.8957 46.9903 18.185V14.246C46.9903 13.5353 47.0857 12.9287 47.2763 12.426C47.467 11.9147 47.7833 11.5247 48.2253 11.256C48.6673 10.9873 49.261 10.853 50.0063 10.853C50.769 10.853 51.367 10.9873 51.8003 11.256C52.2423 11.5247 52.5587 11.9147 52.7493 12.426C52.9487 12.9287 53.0483 13.5353 53.0483 14.246V18.198C53.0483 18.9 52.9487 19.511 52.7493 20.031C52.5587 20.5423 52.2423 20.941 51.8003 21.227C51.367 21.5043 50.769 21.643 50.0063 21.643ZM50.0063 20.226C50.327 20.226 50.561 20.1567 50.7083 20.018C50.8643 19.8793 50.9683 19.6887 51.0203 19.446C51.0723 19.2033 51.0983 18.939 51.0983 18.653V13.804C51.0983 13.5093 51.0723 13.245 51.0203 13.011C50.9683 12.777 50.8643 12.595 50.7083 12.465C50.561 12.3263 50.327 12.257 50.0063 12.257C49.703 12.257 49.4733 12.3263 49.3173 12.465C49.1613 12.595 49.0573 12.777 49.0053 13.011C48.9533 13.245 48.9273 13.5093 48.9273 13.804V18.653C48.9273 18.939 48.949 19.2033 48.9923 19.446C49.0443 19.6887 49.1483 19.8793 49.3043 20.018C49.4603 20.1567 49.6943 20.226 50.0063 20.226ZM54.634 21.5V10.97H57.221C57.689 10.97 58.1093 11.0133 58.482 11.1C58.8633 11.1867 59.1883 11.334 59.457 11.542C59.7343 11.7413 59.9467 12.0143 60.094 12.361C60.2413 12.7077 60.315 13.1453 60.315 13.674C60.315 14.0987 60.2543 14.4627 60.133 14.766C60.0203 15.0693 59.8513 15.312 59.626 15.494C59.4007 15.6673 59.119 15.7843 58.781 15.845C59.197 15.9143 59.5393 16.0617 59.808 16.287C60.0853 16.5037 60.289 16.7897 60.419 17.145C60.5577 17.5003 60.627 17.9293 60.627 18.432C60.627 18.9347 60.562 19.381 60.432 19.771C60.3107 20.1523 60.1243 20.473 59.873 20.733C59.6303 20.9843 59.3227 21.175 58.95 21.305C58.586 21.435 58.157 21.5 57.663 21.5H54.634ZM56.558 20.148H57.286C57.8667 20.148 58.261 20.0093 58.469 19.732C58.677 19.446 58.781 19.0083 58.781 18.419C58.781 17.9943 58.729 17.652 58.625 17.392C58.5297 17.1233 58.365 16.924 58.131 16.794C57.9057 16.664 57.6023 16.599 57.221 16.599H56.558V20.148ZM56.558 15.273H57.208C57.5893 15.273 57.884 15.2167 58.092 15.104C58.3 14.9913 58.443 14.818 58.521 14.584C58.6077 14.35 58.651 14.0553 58.651 13.7C58.651 13.3273 58.586 13.0413 58.456 12.842C58.3347 12.634 58.1483 12.4953 57.897 12.426C57.6457 12.348 57.325 12.309 56.935 12.309H56.558V15.273ZM62.0328 21.5V10.97H66.4528V12.322H63.9568V15.351H65.9198V16.69H63.9568V20.174H66.4788V21.5H62.0328ZM71.0795 21.5V10.97H74.1735C74.8062 10.97 75.3175 11.087 75.7075 11.321C76.1062 11.555 76.3965 11.8973 76.5785 12.348C76.7692 12.79 76.8645 13.3273 76.8645 13.96C76.8645 14.6447 76.7475 15.1993 76.5135 15.624C76.2795 16.04 75.9502 16.3433 75.5255 16.534C75.1095 16.7247 74.6155 16.82 74.0435 16.82H73.0035V21.5H71.0795ZM73.0035 15.468H73.7315C74.0782 15.468 74.3469 15.4203 74.5375 15.325C74.7369 15.221 74.8712 15.0607 74.9405 14.844C75.0185 14.6187 75.0575 14.3197 75.0575 13.947C75.0575 13.5657 75.0272 13.258 74.9665 13.024C74.9145 12.7813 74.7932 12.6037 74.6025 12.491C74.4205 12.3783 74.1302 12.322 73.7315 12.322H73.0035V15.468ZM78.0975 21.5V10.97H80.6195C81.3302 10.97 81.9282 11.0567 82.4135 11.23C82.9075 11.3947 83.2802 11.6807 83.5315 12.088C83.7915 12.4953 83.9215 13.05 83.9215 13.752C83.9215 14.1767 83.8825 14.558 83.8045 14.896C83.7265 15.234 83.5922 15.5243 83.4015 15.767C83.2195 16.001 82.9638 16.183 82.6345 16.313L84.1035 21.5H82.1795L80.9055 16.677H80.0215V21.5H78.0975ZM80.0215 15.468H80.6195C80.9922 15.468 81.2868 15.416 81.5035 15.312C81.7288 15.1993 81.8892 15.026 81.9845 14.792C82.0798 14.5493 82.1275 14.2417 82.1275 13.869C82.1275 13.3403 82.0278 12.946 81.8285 12.686C81.6378 12.4173 81.2695 12.283 80.7235 12.283H80.0215V15.468ZM85.5471 21.5V10.97H89.9671V12.322H87.4711V15.351H89.4341V16.69H87.4711V20.174H89.9931V21.5H85.5471ZM91.2442 21.5L91.4262 10.97H93.4152L94.9102 18.263L96.4702 10.97H98.3942L98.5892 21.5H97.1591L97.0032 14.181L95.5082 21.5H94.3512L92.8302 14.155L92.6871 21.5H91.2442ZM100.359 21.5V10.97H102.257V21.5H100.359ZM104.049 21.5V10.97H108.469V12.322H105.973V15.351H107.936V16.69H105.973V20.174H108.495V21.5H104.049ZM109.772 21.5V10.97H112.294C113.005 10.97 113.603 11.0567 114.088 11.23C114.582 11.3947 114.955 11.6807 115.206 12.088C115.466 12.4953 115.596 13.05 115.596 13.752C115.596 14.1767 115.557 14.558 115.479 14.896C115.401 15.234 115.267 15.5243 115.076 15.767C114.894 16.001 114.639 16.183 114.309 16.313L115.778 21.5H113.854L112.58 16.677H111.696V21.5H109.772ZM111.696 15.468H112.294C112.667 15.468 112.962 15.416 113.178 15.312C113.404 15.1993 113.564 15.026 113.659 14.792C113.755 14.5493 113.802 14.2417 113.802 13.869C113.802 13.3403 113.703 12.946 113.503 12.686C113.313 12.4173 112.944 12.283 112.398 12.283H111.696V15.468ZM117.222 21.5V10.97H121.642V12.322H119.146V15.351H121.109V16.69H119.146V20.174H121.668V21.5H117.222ZM122.945 21.5V10.97H126.039C126.672 10.97 127.183 11.087 127.573 11.321C127.972 11.555 128.262 11.8973 128.444 12.348C128.635 12.79 128.73 13.3273 128.73 13.96C128.73 14.6447 128.613 15.1993 128.379 15.624C128.145 16.04 127.816 16.3433 127.391 16.534C126.975 16.7247 126.481 16.82 125.909 16.82H124.869V21.5H122.945ZM124.869 15.468H125.597C125.944 15.468 126.212 15.4203 126.403 15.325C126.602 15.221 126.737 15.0607 126.806 14.844C126.884 14.6187 126.923 14.3197 126.923 13.947C126.923 13.5657 126.893 13.258 126.832 13.024C126.78 12.7813 126.659 12.6037 126.468 12.491C126.286 12.3783 125.996 12.322 125.597 12.322H124.869V15.468ZM129.963 21.5V10.97H132.485C133.196 10.97 133.794 11.0567 134.279 11.23C134.773 11.3947 135.146 11.6807 135.397 12.088C135.657 12.4953 135.787 13.05 135.787 13.752C135.787 14.1767 135.748 14.558 135.67 14.896C135.592 15.234 135.458 15.5243 135.267 15.767C135.085 16.001 134.829 16.183 134.5 16.313L135.969 21.5H134.045L132.771 16.677H131.887V21.5H129.963ZM131.887 15.468H132.485C132.858 15.468 133.152 15.416 133.369 15.312C133.594 15.1993 133.755 15.026 133.85 14.792C133.945 14.5493 133.993 14.2417 133.993 13.869C133.993 13.3403 133.893 12.946 133.694 12.686C133.503 12.4173 133.135 12.283 132.589 12.283H131.887V15.468ZM140.222 21.643C139.476 21.643 138.883 21.5043 138.441 21.227C137.999 20.9497 137.682 20.551 137.492 20.031C137.301 19.511 137.206 18.8957 137.206 18.185V14.246C137.206 13.5353 137.301 12.9287 137.492 12.426C137.682 11.9147 137.999 11.5247 138.441 11.256C138.883 10.9873 139.476 10.853 140.222 10.853C140.984 10.853 141.582 10.9873 142.016 11.256C142.458 11.5247 142.774 11.9147 142.965 12.426C143.164 12.9287 143.264 13.5353 143.264 14.246V18.198C143.264 18.9 143.164 19.511 142.965 20.031C142.774 20.5423 142.458 20.941 142.016 21.227C141.582 21.5043 140.984 21.643 140.222 21.643ZM140.222 20.226C140.542 20.226 140.776 20.1567 140.924 20.018C141.08 19.8793 141.184 19.6887 141.236 19.446C141.288 19.2033 141.314 18.939 141.314 18.653V13.804C141.314 13.5093 141.288 13.245 141.236 13.011C141.184 12.777 141.08 12.595 140.924 12.465C140.776 12.3263 140.542 12.257 140.222 12.257C139.918 12.257 139.689 12.3263 139.533 12.465C139.377 12.595 139.273 12.777 139.221 13.011C139.169 13.245 139.143 13.5093 139.143 13.804V18.653C139.143 18.939 139.164 19.2033 139.208 19.446C139.26 19.6887 139.364 19.8793 139.52 20.018C139.676 20.1567 139.91 20.226 140.222 20.226Z" fill="white"/>
<defs>
<clipPath id="clip0_32_65">
<rect width="24" height="24" fill="white" transform="translate(4 4)"/>
</clipPath>
</defs>
</svg>
