<svg width="63" height="32" viewBox="0 0 63 32" fill="none" xmlns="http://www.w3.org/2000/svg">
<rect x="0.657013" width="61.685" height="32" rx="2" fill="#151515"/>
<path d="M16.852 12.981H12.264V4H16.852C19.328 4 21.342 6.014 21.342 8.49C21.342 10.966 19.328 12.981 16.852 12.981ZM13.735 11.51H16.852C18.517 11.51 19.871 10.155 19.871 8.491C19.871 6.827 18.516 5.472 16.852 5.472H13.735V11.51ZM13.735 12.981H9.14801C6.67201 12.981 4.65801 10.967 4.65801 8.491C4.65801 6.015 6.67201 4 9.14801 4H13.736V12.981H13.735ZM9.14801 5.471C7.48301 5.471 6.12901 6.826 6.12901 8.49C6.12901 10.154 7.48301 11.51 9.14801 11.51H12.265V5.471H9.14801ZM13.735 20.49H9.14801C6.67201 20.49 4.65801 18.476 4.65801 16C4.65801 13.524 6.67201 11.51 9.14801 11.51H13.736V20.49H13.735ZM9.14801 12.981C7.48301 12.981 6.12901 14.336 6.12901 16C6.12901 17.664 7.48401 19.019 9.14801 19.019H12.265V12.981H9.14801ZM9.17201 28C6.68301 28 4.65701 25.986 4.65701 23.51C4.65701 21.034 6.67101 19.02 9.14701 19.02H13.735V23.461C13.735 25.964 11.688 28 9.17201 28ZM9.14801 20.49C8.34765 20.4911 7.58037 20.8095 7.01443 21.3754C6.44848 21.9414 6.13007 22.7086 6.12901 23.509C6.12901 25.174 7.49401 26.528 9.17301 26.528C10.878 26.528 12.266 25.152 12.266 23.46V20.49H9.14801ZM16.852 20.49H16.754C14.278 20.49 12.264 18.476 12.264 16C12.264 13.524 14.278 11.51 16.754 11.51H16.852C19.328 11.51 21.342 13.524 21.342 16C21.342 18.476 19.328 20.49 16.852 20.49ZM16.755 12.981C15.09 12.981 13.736 14.336 13.736 16C13.736 17.664 15.091 19.019 16.755 19.019H16.853C18.518 19.019 19.872 17.664 19.872 16C19.872 14.336 18.516 12.981 16.852 12.981H16.755Z" fill="white"/>
<path d="M26.135 21.5V10.97H30.464V12.296H28.059V15.364H30.022V16.703H28.059V21.5H26.135ZM31.7196 21.5V10.97H33.6176V21.5H31.7196ZM38.0492 21.643C37.3559 21.643 36.8055 21.4957 36.3982 21.201C35.9909 20.9063 35.6962 20.4903 35.5142 19.953C35.3409 19.407 35.2542 18.7657 35.2542 18.029V14.493C35.2542 13.739 35.3409 13.089 35.5142 12.543C35.6875 11.997 35.9909 11.581 36.4242 11.295C36.8662 11.0003 37.4729 10.853 38.2442 10.853C38.9635 10.853 39.5355 10.9743 39.9602 11.217C40.3849 11.4597 40.6882 11.8107 40.8702 12.27C41.0609 12.7207 41.1562 13.271 41.1562 13.921V14.467H39.3232V13.869C39.3232 13.531 39.2972 13.2407 39.2452 12.998C39.2019 12.7553 39.1065 12.5733 38.9592 12.452C38.8205 12.322 38.5909 12.257 38.2702 12.257C37.9322 12.257 37.6852 12.3393 37.5292 12.504C37.3819 12.6687 37.2865 12.8853 37.2432 13.154C37.2085 13.4227 37.1912 13.7173 37.1912 14.038V18.445C37.1912 18.809 37.2215 19.1253 37.2822 19.394C37.3429 19.6627 37.4555 19.8707 37.6202 20.018C37.7849 20.1567 38.0189 20.226 38.3222 20.226C38.6342 20.226 38.8725 20.148 39.0372 19.992C39.2019 19.836 39.3145 19.6193 39.3752 19.342C39.4445 19.0647 39.4792 18.7353 39.4792 18.354V17.366H38.3482V16.157H41.2082V21.5H39.9732L39.8302 20.46C39.6915 20.8067 39.4792 21.0927 39.1932 21.318C38.9159 21.5347 38.5345 21.643 38.0492 21.643ZM42.8084 21.5L42.9904 10.97H44.9794L46.4744 18.263L48.0344 10.97H49.9584L50.1534 21.5H48.7234L48.5674 14.181L47.0724 21.5H45.9154L44.3944 14.155L44.2514 21.5H42.8084ZM51.3379 21.5L53.4439 10.97H55.4979L57.6039 21.5H55.8229L55.4069 19.069H53.5739L53.1449 21.5H51.3379ZM53.7689 17.847H55.1989L54.4839 13.427L53.7689 17.847Z" fill="white"/>
</svg>
