<svg width="53" height="32" viewBox="0 0 53 32" fill="none" xmlns="http://www.w3.org/2000/svg">
<rect width="53" height="32" rx="2" fill="#151515"/>
<g clip-path="url(#clip0_32_71)">
<path d="M27.546 14.93L17.067 4.45201C16.463 3.84901 15.485 3.84901 14.879 4.45201L12.708 6.62701L15.468 9.38701C16.113 9.17201 16.847 9.31701 17.357 9.82801C17.873 10.343 18.015 11.086 17.795 11.728L20.453 14.388C21.098 14.165 21.84 14.31 22.353 14.823C23.074 15.543 23.074 16.707 22.353 17.427C21.634 18.146 20.472 18.146 19.753 17.427C19.214 16.886 19.079 16.09 19.349 15.431L16.86 12.955V19.48C17.036 19.566 17.202 19.683 17.348 19.828C18.061 20.549 18.061 21.711 17.348 22.428C16.629 23.149 15.459 23.149 14.739 22.428C14.02 21.709 14.02 20.549 14.739 19.83C14.921 19.65 15.126 19.514 15.344 19.424V12.835C15.127 12.744 14.92 12.613 14.744 12.434C14.199 11.889 14.068 11.092 14.348 10.425L11.636 7.70001L4.45 14.881C3.85 15.486 3.85 16.465 4.45 17.07L14.93 27.547C15.534 28.151 16.512 28.151 17.116 27.547L27.546 17.117C28.151 16.514 28.151 15.535 27.546 14.93Z" fill="white"/>
</g>
<path d="M35.432 21.643C34.7387 21.643 34.1883 21.4957 33.781 21.201C33.3737 20.9063 33.079 20.4903 32.897 19.953C32.7237 19.407 32.637 18.7657 32.637 18.029V14.493C32.637 13.739 32.7237 13.089 32.897 12.543C33.0703 11.997 33.3737 11.581 33.807 11.295C34.249 11.0003 34.8557 10.853 35.627 10.853C36.3463 10.853 36.9183 10.9743 37.343 11.217C37.7677 11.4597 38.071 11.8107 38.253 12.27C38.4437 12.7207 38.539 13.271 38.539 13.921V14.467H36.706V13.869C36.706 13.531 36.68 13.2407 36.628 12.998C36.5847 12.7553 36.4893 12.5733 36.342 12.452C36.2033 12.322 35.9737 12.257 35.653 12.257C35.315 12.257 35.068 12.3393 34.912 12.504C34.7647 12.6687 34.6693 12.8853 34.626 13.154C34.5913 13.4227 34.574 13.7173 34.574 14.038V18.445C34.574 18.809 34.6043 19.1253 34.665 19.394C34.7257 19.6627 34.8383 19.8707 35.003 20.018C35.1677 20.1567 35.4017 20.226 35.705 20.226C36.017 20.226 36.2553 20.148 36.42 19.992C36.5847 19.836 36.6973 19.6193 36.758 19.342C36.8273 19.0647 36.862 18.7353 36.862 18.354V17.366H35.731V16.157H38.591V21.5H37.356L37.213 20.46C37.0743 20.8067 36.862 21.0927 36.576 21.318C36.2987 21.5347 35.9173 21.643 35.432 21.643ZM40.2692 21.5V10.97H42.1672V21.5H40.2692ZM45.0128 21.5V12.387H43.3358V10.97H48.5878V12.387H46.9368V21.5H45.0128Z" fill="white"/>
<defs>
<clipPath id="clip0_32_71">
<rect width="24" height="24" fill="white" transform="translate(4 4)"/>
</clipPath>
</defs>
</svg>
