<svg width="147" height="32" viewBox="0 0 147 32" fill="none" xmlns="http://www.w3.org/2000/svg">
<rect width="147" height="32" rx="2" fill="#151515"/>
<g clip-path="url(#clip0_32_68)">
<path d="M27.15 6.58699L22.21 4.20999C21.9308 4.07555 21.6167 4.03124 21.3112 4.0832C21.0058 4.13515 20.724 4.28081 20.505 4.49999L11.045 13.13L6.92498 10.002C6.7391 9.86101 6.50974 9.78952 6.27668 9.79993C6.04361 9.81034 5.82154 9.90199 5.64898 10.059L4.32698 11.261C4.22396 11.3546 4.14163 11.4688 4.08526 11.5961C4.02889 11.7234 3.99973 11.861 3.99963 12.0003C3.99954 12.1395 4.02852 12.2772 4.08471 12.4046C4.14091 12.532 4.22308 12.6462 4.32598 12.74L7.89898 16L4.32598 19.26C4.22308 19.3538 4.14091 19.468 4.08471 19.5954C4.02852 19.7228 3.99954 19.8605 3.99963 19.9997C3.99973 20.1389 4.02889 20.2766 4.08526 20.4039C4.14163 20.5312 4.22396 20.6453 4.32698 20.739L5.64998 21.94C5.82254 22.097 6.04461 22.1886 6.27768 22.1991C6.51074 22.2095 6.7401 22.138 6.92598 21.997L11.046 18.869L20.506 27.499C20.7248 27.7182 21.0064 27.8639 21.3117 27.9159C21.617 27.9678 21.931 27.9235 22.21 27.789L27.152 25.412C27.4062 25.2893 27.6207 25.0973 27.7707 24.8581C27.9207 24.619 28.0002 24.3423 28 24.06V7.93899C28 7.65646 27.9202 7.37966 27.7699 7.14047C27.6195 6.90128 27.4046 6.70942 27.15 6.58699ZM22.004 21.448L14.826 16L22.004 10.552V21.448Z" fill="white"/>
</g>
<path d="M34.405 21.5L32.286 10.97H33.989L35.38 18.419L36.68 10.97H38.422L36.303 21.5H34.405ZM39.7106 21.5V10.97H41.6086V21.5H39.7106ZM46.0532 21.643C45.4205 21.643 44.8919 21.5217 44.4672 21.279C44.0425 21.0277 43.7219 20.6637 43.5052 20.187C43.2885 19.7103 43.1672 19.1253 43.1412 18.432L44.7922 18.107C44.8095 18.5143 44.8572 18.874 44.9352 19.186C45.0219 19.498 45.1475 19.7407 45.3122 19.914C45.4855 20.0787 45.7109 20.161 45.9882 20.161C46.3002 20.161 46.5212 20.07 46.6512 19.888C46.7812 19.6973 46.8462 19.459 46.8462 19.173C46.8462 18.7137 46.7422 18.3367 46.5342 18.042C46.3262 17.7473 46.0489 17.4527 45.7022 17.158L44.3762 15.988C44.0035 15.6673 43.7045 15.312 43.4792 14.922C43.2625 14.5233 43.1542 14.0337 43.1542 13.453C43.1542 12.621 43.3969 11.9797 43.8822 11.529C44.3675 11.0783 45.0305 10.853 45.8712 10.853C46.3652 10.853 46.7769 10.931 47.1062 11.087C47.4355 11.2343 47.6955 11.4423 47.8862 11.711C48.0855 11.9797 48.2329 12.2873 48.3282 12.634C48.4235 12.972 48.4842 13.3317 48.5102 13.713L46.8722 13.999C46.8549 13.6697 46.8159 13.375 46.7552 13.115C46.7032 12.855 46.6035 12.6513 46.4562 12.504C46.3175 12.3567 46.1095 12.283 45.8322 12.283C45.5462 12.283 45.3252 12.3783 45.1692 12.569C45.0219 12.751 44.9482 12.9807 44.9482 13.258C44.9482 13.6133 45.0219 13.908 45.1692 14.142C45.3165 14.3673 45.5289 14.6013 45.8062 14.844L47.1192 16.001C47.5525 16.365 47.9209 16.794 48.2242 17.288C48.5362 17.7733 48.6922 18.3627 48.6922 19.056C48.6922 19.5587 48.5795 20.005 48.3542 20.395C48.1375 20.785 47.8299 21.0927 47.4312 21.318C47.0412 21.5347 46.5819 21.643 46.0532 21.643ZM52.8735 21.643C52.0935 21.643 51.4869 21.5 51.0535 21.214C50.6202 20.928 50.3212 20.5207 50.1565 19.992C49.9919 19.4633 49.9095 18.8307 49.9095 18.094V10.97H51.7815V18.315C51.7815 18.6443 51.8032 18.9563 51.8465 19.251C51.8899 19.537 51.9895 19.771 52.1455 19.953C52.3102 20.1263 52.5529 20.213 52.8735 20.213C53.2115 20.213 53.4542 20.1263 53.6015 19.953C53.7575 19.771 53.8572 19.537 53.9005 19.251C53.9525 18.9563 53.9785 18.6443 53.9785 18.315V10.97H55.8375V18.094C55.8375 18.8307 55.7552 19.4633 55.5905 19.992C55.4259 20.5207 55.1269 20.928 54.6935 21.214C54.2689 21.5 53.6622 21.643 52.8735 21.643ZM56.9295 21.5L59.0355 10.97H61.0895L63.1955 21.5H61.4145L60.9985 19.069H59.1655L58.7365 21.5H56.9295ZM59.3605 17.847H60.7905L60.0755 13.427L59.3605 17.847ZM64.417 21.5V10.97H66.341V20.174H68.889V21.5H64.417ZM76.0268 21.643C75.3942 21.643 74.8655 21.5217 74.4408 21.279C74.0162 21.0277 73.6955 20.6637 73.4788 20.187C73.2622 19.7103 73.1408 19.1253 73.1148 18.432L74.7658 18.107C74.7832 18.5143 74.8308 18.874 74.9088 19.186C74.9955 19.498 75.1212 19.7407 75.2858 19.914C75.4592 20.0787 75.6845 20.161 75.9618 20.161C76.2738 20.161 76.4948 20.07 76.6248 19.888C76.7548 19.6973 76.8198 19.459 76.8198 19.173C76.8198 18.7137 76.7158 18.3367 76.5078 18.042C76.2998 17.7473 76.0225 17.4527 75.6758 17.158L74.3498 15.988C73.9772 15.6673 73.6782 15.312 73.4528 14.922C73.2362 14.5233 73.1278 14.0337 73.1278 13.453C73.1278 12.621 73.3705 11.9797 73.8558 11.529C74.3412 11.0783 75.0042 10.853 75.8448 10.853C76.3388 10.853 76.7505 10.931 77.0798 11.087C77.4092 11.2343 77.6692 11.4423 77.8598 11.711C78.0592 11.9797 78.2065 12.2873 78.3018 12.634C78.3972 12.972 78.4578 13.3317 78.4838 13.713L76.8458 13.999C76.8285 13.6697 76.7895 13.375 76.7288 13.115C76.6768 12.855 76.5772 12.6513 76.4298 12.504C76.2912 12.3567 76.0832 12.283 75.8058 12.283C75.5198 12.283 75.2988 12.3783 75.1428 12.569C74.9955 12.751 74.9218 12.9807 74.9218 13.258C74.9218 13.6133 74.9955 13.908 75.1428 14.142C75.2902 14.3673 75.5025 14.6013 75.7798 14.844L77.0928 16.001C77.5262 16.365 77.8945 16.794 78.1978 17.288C78.5098 17.7733 78.6658 18.3627 78.6658 19.056C78.6658 19.5587 78.5532 20.005 78.3278 20.395C78.1112 20.785 77.8035 21.0927 77.4048 21.318C77.0148 21.5347 76.5555 21.643 76.0268 21.643ZM81.0142 21.5V12.387H79.3372V10.97H84.5892V12.387H82.9382V21.5H81.0142ZM88.5956 21.643C87.8156 21.643 87.2089 21.5 86.7756 21.214C86.3423 20.928 86.0433 20.5207 85.8786 19.992C85.7139 19.4633 85.6316 18.8307 85.6316 18.094V10.97H87.5036V18.315C87.5036 18.6443 87.5253 18.9563 87.5686 19.251C87.6119 19.537 87.7116 19.771 87.8676 19.953C88.0323 20.1263 88.2749 20.213 88.5956 20.213C88.9336 20.213 89.1763 20.1263 89.3236 19.953C89.4796 19.771 89.5793 19.537 89.6226 19.251C89.6746 18.9563 89.7006 18.6443 89.7006 18.315V10.97H91.5596V18.094C91.5596 18.8307 91.4773 19.4633 91.3126 19.992C91.1479 20.5207 90.8489 20.928 90.4156 21.214C89.9909 21.5 89.3843 21.643 88.5956 21.643ZM93.2354 21.5V10.97H95.7184C96.5764 10.97 97.2437 11.087 97.7204 11.321C98.2057 11.555 98.548 11.9147 98.7474 12.4C98.9554 12.8853 99.0594 13.5007 99.0594 14.246V18.094C99.0594 18.8567 98.9554 19.4937 98.7474 20.005C98.548 20.5077 98.21 20.8847 97.7334 21.136C97.2654 21.3787 96.6197 21.5 95.7964 21.5H93.2354ZM95.1594 20.161H95.7444C96.1864 20.161 96.5027 20.083 96.6934 19.927C96.884 19.771 97.001 19.5457 97.0444 19.251C97.0877 18.9477 97.1094 18.5793 97.1094 18.146V14.116C97.1094 13.6913 97.079 13.349 97.0184 13.089C96.9577 12.829 96.832 12.6383 96.6414 12.517C96.4507 12.3957 96.143 12.335 95.7184 12.335H95.1594V20.161ZM100.686 21.5V10.97H102.584V21.5H100.686ZM107.237 21.643C106.491 21.643 105.898 21.5043 105.456 21.227C105.014 20.9497 104.697 20.551 104.507 20.031C104.316 19.511 104.221 18.8957 104.221 18.185V14.246C104.221 13.5353 104.316 12.9287 104.507 12.426C104.697 11.9147 105.014 11.5247 105.456 11.256C105.898 10.9873 106.491 10.853 107.237 10.853C107.999 10.853 108.597 10.9873 109.031 11.256C109.473 11.5247 109.789 11.9147 109.98 12.426C110.179 12.9287 110.279 13.5353 110.279 14.246V18.198C110.279 18.9 110.179 19.511 109.98 20.031C109.789 20.5423 109.473 20.941 109.031 21.227C108.597 21.5043 107.999 21.643 107.237 21.643ZM107.237 20.226C107.557 20.226 107.791 20.1567 107.939 20.018C108.095 19.8793 108.199 19.6887 108.251 19.446C108.303 19.2033 108.329 18.939 108.329 18.653V13.804C108.329 13.5093 108.303 13.245 108.251 13.011C108.199 12.777 108.095 12.595 107.939 12.465C107.791 12.3263 107.557 12.257 107.237 12.257C106.933 12.257 106.704 12.3263 106.548 12.465C106.392 12.595 106.288 12.777 106.236 13.011C106.184 13.245 106.158 13.5093 106.158 13.804V18.653C106.158 18.939 106.179 19.2033 106.223 19.446C106.275 19.6887 106.379 19.8793 106.535 20.018C106.691 20.1567 106.925 20.226 107.237 20.226ZM118.022 21.643C117.251 21.643 116.644 21.4913 116.202 21.188C115.769 20.8847 115.465 20.473 115.292 19.953C115.119 19.4243 115.032 18.8177 115.032 18.133V14.376C115.032 13.6567 115.119 13.0327 115.292 12.504C115.465 11.9753 115.769 11.568 116.202 11.282C116.644 10.996 117.251 10.853 118.022 10.853C118.75 10.853 119.318 10.9787 119.725 11.23C120.141 11.4727 120.436 11.8237 120.609 12.283C120.782 12.7423 120.869 13.2753 120.869 13.882V14.766H119.023V13.856C119.023 13.5613 119.006 13.2927 118.971 13.05C118.945 12.8073 118.863 12.6167 118.724 12.478C118.594 12.3307 118.364 12.257 118.035 12.257C117.706 12.257 117.463 12.335 117.307 12.491C117.16 12.6383 117.064 12.842 117.021 13.102C116.978 13.3533 116.956 13.6393 116.956 13.96V18.536C116.956 18.9173 116.986 19.2337 117.047 19.485C117.108 19.7277 117.216 19.914 117.372 20.044C117.537 20.1653 117.758 20.226 118.035 20.226C118.356 20.226 118.581 20.1523 118.711 20.005C118.85 19.849 118.936 19.6453 118.971 19.394C119.006 19.1427 119.023 18.861 119.023 18.549V17.6H120.869V18.445C120.869 19.069 120.787 19.6237 120.622 20.109C120.457 20.5857 120.167 20.9627 119.751 21.24C119.344 21.5087 118.767 21.643 118.022 21.643ZM125.231 21.643C124.486 21.643 123.892 21.5043 123.45 21.227C123.008 20.9497 122.692 20.551 122.501 20.031C122.31 19.511 122.215 18.8957 122.215 18.185V14.246C122.215 13.5353 122.31 12.9287 122.501 12.426C122.692 11.9147 123.008 11.5247 123.45 11.256C123.892 10.9873 124.486 10.853 125.231 10.853C125.994 10.853 126.592 10.9873 127.025 11.256C127.467 11.5247 127.783 11.9147 127.974 12.426C128.173 12.9287 128.273 13.5353 128.273 14.246V18.198C128.273 18.9 128.173 19.511 127.974 20.031C127.783 20.5423 127.467 20.941 127.025 21.227C126.592 21.5043 125.994 21.643 125.231 21.643ZM125.231 20.226C125.552 20.226 125.786 20.1567 125.933 20.018C126.089 19.8793 126.193 19.6887 126.245 19.446C126.297 19.2033 126.323 18.939 126.323 18.653V13.804C126.323 13.5093 126.297 13.245 126.245 13.011C126.193 12.777 126.089 12.595 125.933 12.465C125.786 12.3263 125.552 12.257 125.231 12.257C124.928 12.257 124.698 12.3263 124.542 12.465C124.386 12.595 124.282 12.777 124.23 13.011C124.178 13.245 124.152 13.5093 124.152 13.804V18.653C124.152 18.939 124.174 19.2033 124.217 19.446C124.269 19.6887 124.373 19.8793 124.529 20.018C124.685 20.1567 124.919 20.226 125.231 20.226ZM129.859 21.5V10.97H132.342C133.2 10.97 133.867 11.087 134.344 11.321C134.829 11.555 135.171 11.9147 135.371 12.4C135.579 12.8853 135.683 13.5007 135.683 14.246V18.094C135.683 18.8567 135.579 19.4937 135.371 20.005C135.171 20.5077 134.833 20.8847 134.357 21.136C133.889 21.3787 133.243 21.5 132.42 21.5H129.859ZM131.783 20.161H132.368C132.81 20.161 133.126 20.083 133.317 19.927C133.507 19.771 133.624 19.5457 133.668 19.251C133.711 18.9477 133.733 18.5793 133.733 18.146V14.116C133.733 13.6913 133.702 13.349 133.642 13.089C133.581 12.829 133.455 12.6383 133.265 12.517C133.074 12.3957 132.766 12.335 132.342 12.335H131.783V20.161ZM137.258 21.5V10.97H141.678V12.322H139.182V15.351H141.145V16.69H139.182V20.174H141.704V21.5H137.258Z" fill="white"/>
<defs>
<clipPath id="clip0_32_68">
<rect width="24" height="24" fill="white" transform="translate(4 4)"/>
</clipPath>
</defs>
</svg>
